<svg preserveAspectRatio="none" width="100%" height="100%" overflow="visible" style="display: block;" viewBox="0 0 681 238" fill="none" xmlns="http://www.w3.org/2000/svg">
<g id="Grey And White Colors">
<g id="First Left">
<g id="&#208;&#161;&#208;&#157;&#208;&#149;&#208;&#150;&#208;&#157;&#208;&#171;&#208;&#153; &#208;&#177;&#208;&#149;&#208;&#155;&#208;&#171;&#208;&#153;">
<path id="Vector" d="M84.7791 226.695V214.005H86.9211V223.473H86.5071L93.7431 214.005H95.4711V226.695H93.3291V217.209H93.7251L86.4891 226.695H84.7791ZM90.1071 213.015C89.4711 213.015 88.9071 212.913 88.4151 212.709C87.9351 212.493 87.5331 212.199 87.2091 211.827C86.8971 211.443 86.6751 210.999 86.5431 210.495L87.6951 210.099C87.9351 210.687 88.2471 211.113 88.6311 211.377C89.0151 211.629 89.5131 211.755 90.1251 211.755C90.7491 211.755 91.2471 211.623 91.6191 211.359C92.0031 211.095 92.3271 210.681 92.5911 210.117L93.7071 210.495C93.4311 211.323 92.9751 211.953 92.3391 212.385C91.7151 212.805 90.9711 213.015 90.1071 213.015Z" fill="var(--fill-0, #003D57)"/>
<path id="Vector_2" d="M66.3945 226.695V214.005H68.6985V219.297H71.5965C72.4965 219.297 73.2705 219.441 73.9185 219.729C74.5665 220.005 75.0585 220.419 75.3945 220.971C75.7425 221.511 75.9165 222.183 75.9165 222.987C75.9165 223.791 75.7425 224.469 75.3945 225.021C75.0585 225.573 74.5665 225.993 73.9185 226.281C73.2705 226.557 72.4965 226.695 71.5965 226.695H66.3945ZM68.6985 224.859H71.3085C72.1245 224.859 72.7245 224.709 73.1085 224.409C73.4925 224.097 73.6845 223.623 73.6845 222.987C73.6845 222.351 73.4925 221.883 73.1085 221.583C72.7245 221.283 72.1245 221.133 71.3085 221.133H68.6985V224.859ZM77.5365 226.695V214.005H79.8405V226.695H77.5365Z" fill="var(--fill-0, #003D57)"/>
<path id="Vector_3" d="M50.6993 227.001L49.5653 225.291C50.0453 225.015 50.4653 224.697 50.8253 224.337C51.1973 223.965 51.5033 223.503 51.7433 222.951C51.9953 222.387 52.1813 221.691 52.3013 220.863C52.4333 220.035 52.4993 219.033 52.4993 217.857V214.005H61.4633V226.695H59.1593V215.931H54.6233V218.451C54.6233 219.675 54.5333 220.749 54.3533 221.673C54.1853 222.597 53.9333 223.401 53.5973 224.085C53.2613 224.769 52.8473 225.351 52.3553 225.831C51.8753 226.299 51.3233 226.689 50.6993 227.001Z" fill="var(--fill-0, #003D57)"/>
<path id="Vector_4" d="M37.7991 226.695V214.005H46.2411V215.841H40.0131V219.333H45.8451V221.169H40.0131V224.859H46.2411V226.695H37.7991Z" fill="var(--fill-0, #003D57)"/>
<path id="Vector_5" d="M23.5277 226.695V214.005H32.3477V215.841H25.7417V219.297H29.2697C30.1697 219.297 30.9437 219.441 31.5917 219.729C32.2397 220.005 32.7317 220.419 33.0677 220.971C33.4157 221.511 33.5897 222.183 33.5897 222.987C33.5897 223.791 33.4157 224.469 33.0677 225.021C32.7317 225.573 32.2397 225.993 31.5917 226.281C30.9437 226.557 30.1697 226.695 29.2697 226.695H23.5277ZM25.7417 224.859H28.9817C29.7977 224.859 30.3977 224.709 30.7817 224.409C31.1657 224.097 31.3577 223.623 31.3577 222.987C31.3577 222.351 31.1657 221.883 30.7817 221.583C30.3977 221.283 29.7977 221.133 28.9817 221.133H25.7417V224.859Z" fill="var(--fill-0, #003D57)"/>
<path id="Vector_6" d="M99.7634 201.695V189.005H101.905V198.473H101.491L108.727 189.005H110.455V201.695H108.313V192.209H108.709L101.473 201.695H99.7634ZM105.091 188.015C104.455 188.015 103.891 187.913 103.399 187.709C102.919 187.493 102.517 187.199 102.193 186.827C101.881 186.443 101.659 185.999 101.527 185.495L102.679 185.099C102.919 185.687 103.231 186.113 103.615 186.377C103.999 186.629 104.497 186.755 105.109 186.755C105.733 186.755 106.231 186.623 106.603 186.359C106.987 186.095 107.311 185.681 107.575 185.117L108.691 185.495C108.415 186.323 107.959 186.953 107.323 187.385C106.699 187.805 105.955 188.015 105.091 188.015Z" fill="var(--fill-0, #003D57)"/>
<path id="Vector_7" d="M81.3788 201.695V189.005H83.6828V194.297H86.5808C87.4808 194.297 88.2548 194.441 88.9028 194.729C89.5508 195.005 90.0428 195.419 90.3788 195.971C90.7268 196.511 90.9008 197.183 90.9008 197.987C90.9008 198.791 90.7268 199.469 90.3788 200.021C90.0428 200.573 89.5508 200.993 88.9028 201.281C88.2548 201.557 87.4808 201.695 86.5808 201.695H81.3788ZM83.6828 199.859H86.2928C87.1088 199.859 87.7088 199.709 88.0928 199.409C88.4768 199.097 88.6688 198.623 88.6688 197.987C88.6688 197.351 88.4768 196.883 88.0928 196.583C87.7088 196.283 87.1088 196.133 86.2928 196.133H83.6828V199.859ZM92.5208 201.695V189.005H94.8248V201.695H92.5208Z" fill="var(--fill-0, #003D57)"/>
<path id="Vector_8" d="M65.2969 201.695V189.005H67.6009V194.297H74.1349V189.005H76.4389V201.695H74.1349V196.223H67.6009V201.695H65.2969Z" fill="var(--fill-0, #003D57)"/>
<path id="Vector_9" d="M43.5768 201.695L45.7728 197.177C46.0368 196.637 46.3308 196.181 46.6548 195.809C46.9788 195.437 47.3448 195.143 47.7528 194.927C48.1728 194.699 48.6408 194.549 49.1568 194.477L48.2568 195.143L44.2428 189.005H46.7808L50.3808 194.693L49.9488 194.387H51.5328V189.005H53.7468V194.387H55.3488L54.8988 194.693L58.4988 189.005H61.0368L57.0228 195.143L56.1228 194.477C56.6388 194.549 57.1008 194.699 57.5088 194.927C57.9168 195.155 58.2828 195.455 58.6068 195.827C58.9428 196.199 59.2368 196.649 59.4888 197.177L61.6848 201.695H59.2008L57.4908 198.041C57.1908 197.417 56.8428 196.973 56.4468 196.709C56.0508 196.445 55.5528 196.313 54.9528 196.313H53.7468V201.695H51.5328V196.313H50.3268C49.7148 196.313 49.2048 196.451 48.7968 196.727C48.4008 196.991 48.0588 197.429 47.7708 198.041L46.0788 201.695H43.5768Z" fill="var(--fill-0, #003D57)"/>
<path id="Vector_10" d="M31.9906 201.695V189.005H40.4326V190.841H34.2046V194.333H40.0366V196.169H34.2046V199.859H40.4326V201.695H31.9906Z" fill="var(--fill-0, #003D57)"/>
<path id="Vector_11" d="M15.9087 201.695V189.005H18.2127V194.297H24.7467V189.005H27.0507V201.695H24.7467V196.223H18.2127V201.695H15.9087Z" fill="var(--fill-0, #003D57)"/>
<path id="Vector_12" d="M7.43589 201.875C6.11589 201.875 4.98189 201.611 4.03389 201.083C3.09789 200.543 2.37789 199.787 1.87389 198.815C1.36989 197.831 1.11789 196.673 1.11789 195.341C1.11789 194.009 1.36989 192.857 1.87389 191.885C2.37789 190.913 3.09789 190.163 4.03389 189.635C4.98189 189.095 6.11589 188.825 7.43589 188.825C8.28789 188.825 9.09189 188.957 9.84789 189.221C10.6159 189.485 11.2459 189.863 11.7379 190.355L10.9819 192.191C10.4419 191.735 9.88989 191.405 9.32589 191.201C8.76189 190.985 8.15589 190.877 7.50789 190.877C6.22389 190.877 5.24589 191.267 4.57389 192.047C3.90189 192.815 3.56589 193.913 3.56589 195.341C3.56589 196.769 3.90189 197.873 4.57389 198.653C5.24589 199.433 6.22389 199.823 7.50789 199.823C8.15589 199.823 8.76189 199.721 9.32589 199.517C9.88989 199.301 10.4419 198.965 10.9819 198.509L11.7379 200.345C11.2459 200.825 10.6159 201.203 9.84789 201.479C9.09189 201.743 8.28789 201.875 7.43589 201.875Z" fill="var(--fill-0, #003D57)"/>
</g>
<circle id="Ellipse 4" cx="60.104" cy="120.649" r="48.8542" fill="var(--fill-0, white)" stroke="var(--stroke-0, #C1C1C1)" stroke-width="1.5"/>
<line id="Line 1" x1="60.7498" y1="11.9999" x2="60.7498" y2="71.9999" stroke="var(--stroke-0, #C1C1C1)" stroke-width="1.5"/>
</g>
<g id="Right Bottom">
<path id="Line 2" d="M669.897 117.915L669.897 190.851" stroke="var(--stroke-0, #24475E)" stroke-width="1.5"/>
<circle id="Ellipse 6" cx="668.932" cy="200.913" r="10.1664" transform="rotate(90.0854 668.932 200.913)" stroke="var(--stroke-0, #153C55)" stroke-width="1.5"/>
</g>
<g id="Second Left">
<g id="&#208;&#155;&#208;&#163;&#208;&#157;&#208;&#157;&#208;&#171;&#208;&#153; &#208;&#161;&#208;&#149;&#208;&#160;&#208;&#171;&#208;&#153;">
<path id="Vector_13" d="M298.846 226.878V214.188H300.988V223.656H300.574L307.81 214.188H309.538V226.878H307.396V217.392H307.792L300.556 226.878H298.846ZM304.174 213.198C303.538 213.198 302.974 213.096 302.482 212.892C302.002 212.676 301.6 212.382 301.276 212.01C300.964 211.626 300.742 211.182 300.61 210.678L301.762 210.282C302.002 210.87 302.314 211.296 302.698 211.56C303.082 211.812 303.58 211.938 304.192 211.938C304.816 211.938 305.314 211.806 305.686 211.542C306.07 211.278 306.394 210.864 306.658 210.3L307.774 210.678C307.498 211.506 307.042 212.136 306.406 212.568C305.782 212.988 305.038 213.198 304.174 213.198Z" fill="var(--fill-0, #003D57)"/>
<path id="Vector_14" d="M280.462 226.878V214.188H282.766V219.48H285.664C286.564 219.48 287.338 219.624 287.986 219.912C288.634 220.188 289.126 220.602 289.462 221.154C289.81 221.694 289.984 222.366 289.984 223.17C289.984 223.974 289.81 224.652 289.462 225.204C289.126 225.756 288.634 226.176 287.986 226.464C287.338 226.74 286.564 226.878 285.664 226.878H280.462ZM282.766 225.042H285.376C286.192 225.042 286.792 224.892 287.176 224.592C287.56 224.28 287.752 223.806 287.752 223.17C287.752 222.534 287.56 222.066 287.176 221.766C286.792 221.466 286.192 221.316 285.376 221.316H282.766V225.042ZM291.604 226.878V214.188H293.908V226.878H291.604Z" fill="var(--fill-0, #003D57)"/>
<path id="Vector_15" d="M266.56 226.878V214.188H272.068C273.004 214.188 273.796 214.344 274.444 214.656C275.092 214.968 275.584 215.418 275.92 216.006C276.256 216.594 276.424 217.308 276.424 218.148C276.424 218.976 276.256 219.69 275.92 220.29C275.584 220.878 275.092 221.334 274.444 221.658C273.796 221.97 273.004 222.126 272.068 222.126H268.864V226.878H266.56ZM268.864 220.308H271.708C272.524 220.308 273.142 220.128 273.562 219.768C273.982 219.396 274.192 218.856 274.192 218.148C274.192 217.44 273.982 216.906 273.562 216.546C273.142 216.186 272.524 216.006 271.708 216.006H268.864V220.308Z" fill="var(--fill-0, #003D57)"/>
<path id="Vector_16" d="M253.659 226.878V214.188H262.101V216.024H255.873V219.516H261.705V221.352H255.873V225.042H262.101V226.878H253.659Z" fill="var(--fill-0, #003D57)"/>
<path id="Vector_17" d="M245.187 227.058C243.867 227.058 242.733 226.794 241.785 226.266C240.849 225.726 240.129 224.97 239.625 223.998C239.121 223.014 238.869 221.856 238.869 220.524C238.869 219.192 239.121 218.04 239.625 217.068C240.129 216.096 240.849 215.346 241.785 214.818C242.733 214.278 243.867 214.008 245.187 214.008C246.039 214.008 246.843 214.14 247.599 214.404C248.367 214.668 248.997 215.046 249.489 215.538L248.733 217.374C248.193 216.918 247.641 216.588 247.077 216.384C246.513 216.168 245.907 216.06 245.259 216.06C243.975 216.06 242.997 216.45 242.325 217.23C241.653 217.998 241.317 219.096 241.317 220.524C241.317 221.952 241.653 223.056 242.325 223.836C242.997 224.616 243.975 225.006 245.259 225.006C245.907 225.006 246.513 224.904 247.077 224.7C247.641 224.484 248.193 224.148 248.733 223.692L249.489 225.528C248.997 226.008 248.367 226.386 247.599 226.662C246.843 226.926 246.039 227.058 245.187 227.058Z" fill="var(--fill-0, #003D57)"/>
<path id="Vector_18" d="M309.208 201.878V189.188H311.35V198.656H310.936L318.172 189.188H319.9V201.878H317.758V192.392H318.154L310.918 201.878H309.208ZM314.536 188.198C313.9 188.198 313.336 188.096 312.844 187.892C312.364 187.676 311.962 187.382 311.638 187.01C311.326 186.626 311.104 186.182 310.972 185.678L312.124 185.282C312.364 185.87 312.676 186.296 313.06 186.56C313.444 186.812 313.942 186.938 314.554 186.938C315.178 186.938 315.676 186.806 316.048 186.542C316.432 186.278 316.756 185.864 317.02 185.3L318.136 185.678C317.86 186.506 317.404 187.136 316.768 187.568C316.144 187.988 315.4 188.198 314.536 188.198Z" fill="var(--fill-0, #003D57)"/>
<path id="Vector_19" d="M290.823 201.878V189.188H293.127V194.48H296.025C296.925 194.48 297.699 194.624 298.347 194.912C298.995 195.188 299.487 195.602 299.823 196.154C300.171 196.694 300.345 197.366 300.345 198.17C300.345 198.974 300.171 199.652 299.823 200.204C299.487 200.756 298.995 201.176 298.347 201.464C297.699 201.74 296.925 201.878 296.025 201.878H290.823ZM293.127 200.042H295.737C296.553 200.042 297.153 199.892 297.537 199.592C297.921 199.28 298.113 198.806 298.113 198.17C298.113 197.534 297.921 197.066 297.537 196.766C297.153 196.466 296.553 196.316 295.737 196.316H293.127V200.042ZM301.965 201.878V189.188H304.269V201.878H301.965Z" fill="var(--fill-0, #003D57)"/>
<path id="Vector_20" d="M274.741 201.878V189.188H277.045V194.48H283.579V189.188H285.883V201.878H283.579V196.406H277.045V201.878H274.741Z" fill="var(--fill-0, #003D57)"/>
<path id="Vector_21" d="M258.659 201.878V189.188H260.963V194.48H267.497V189.188H269.801V201.878H267.497V196.406H260.963V201.878H258.659Z" fill="var(--fill-0, #003D57)"/>
<path id="Vector_22" d="M246.489 201.878L248.649 197.648V198.368L242.979 189.188H245.445L249.765 196.298H249.351L252.969 189.188H255.345L248.883 201.878H246.489Z" fill="var(--fill-0, #003D57)"/>
<path id="Vector_23" d="M228.921 202.184L227.787 200.474C228.267 200.198 228.687 199.88 229.047 199.52C229.419 199.148 229.725 198.686 229.965 198.134C230.217 197.57 230.403 196.874 230.523 196.046C230.655 195.218 230.721 194.216 230.721 193.04V189.188H239.685V201.878H237.381V191.114H232.845V193.634C232.845 194.858 232.755 195.932 232.575 196.856C232.407 197.78 232.155 198.584 231.819 199.268C231.483 199.952 231.069 200.534 230.577 201.014C230.097 201.482 229.545 201.872 228.921 202.184Z" fill="var(--fill-0, #003D57)"/>
</g>
<circle id="Ellipse 5" cx="274.469" cy="120.832" r="48.8542" fill="var(--fill-0, #AFAEB3)" stroke="var(--stroke-0, #C1C1C1)" stroke-width="1.5"/>
</g>
<g id="Right Top">
<circle id="Ellipse 1" cx="668.933" cy="12.1602" r="10.1664" transform="rotate(90.0854 668.933 12.1602)" stroke="var(--stroke-0, #153C55)" stroke-width="1.5"/>
</g>
<line id="Line Bottom" x1="324" y1="118.5" x2="670" y2="118.5" stroke="url(#paint0_linear_223_1814)"/>
<line id="Line Top" x1="60" y1="11.5" x2="658" y2="11.5001" stroke="url(#paint1_linear_223_1814)"/>
</g>
<defs>
<linearGradient id="paint0_linear_223_1814" x1="324" y1="119.5" x2="670" y2="119.5" gradientUnits="userSpaceOnUse">
<stop stop-color="#C1C1C1"/>
<stop offset="1" stop-color="#163C55"/>
</linearGradient>
<linearGradient id="paint1_linear_223_1814" x1="60" y1="12.5" x2="658" y2="12.5001" gradientUnits="userSpaceOnUse">
<stop stop-color="#C1C1C1"/>
<stop offset="1" stop-color="#163C55"/>
</linearGradient>
</defs>
</svg>
