<svg width="952" height="886" viewBox="0 0 952 886" fill="none" xmlns="http://www.w3.org/2000/svg">
<g clip-path="url(#clip0_212_1675)">
<path d="M759.786 440.539L-130.719 906.996C-137.137 910.358 -144.871 905.903 -145.183 898.664L-160.33 546.486L-15.015 107.575L749.096 280.398C757.206 282.232 762.965 289.438 762.965 297.753V435.285C762.965 437.491 761.74 439.515 759.786 440.539Z" stroke="#F2E6D4" stroke-width="1.97708"/>
<path d="M759.01 287.488C759.01 287.488 761.976 294.408 756.045 298.362C750.461 302.085 -27.9638 653.673 -119.042 694.806C-124.924 697.463 -131.046 698.72 -137.5 698.72H-156.376" stroke="#F2E6D4" stroke-width="1.97708"/>
<path d="M371.503 70.709V302.316" stroke="#F2E6D4" stroke-width="1.97708"/>
<path d="M373.48 769.057L373.48 645.826" stroke="#F2E6D4" stroke-width="1.97708"/>
<path d="M384.399 288.812L371.387 303.697L360.238 287.069" stroke="#F2E6D4" stroke-width="1.97708"/>
<path d="M360.676 659.774L373.688 644.889L384.838 661.517" stroke="#F2E6D4" stroke-width="1.97708"/>
<circle cx="371.504" cy="58.2028" r="13.3998" stroke="#D9D9D9" stroke-width="1.97708"/>
<circle cx="371.503" cy="781.564" r="13.3998" transform="rotate(-180 371.503 781.564)" stroke="#D9D9D9" stroke-width="1.97708"/>
<path opacity="0.5" d="M762.964 -0.388672V738.574" stroke="url(#paint0_linear_212_1675)" stroke-width="1.97708"/>
<path opacity="0.5" d="M907.922 361.933L254.143 706.373" stroke="url(#paint1_linear_212_1675)" stroke-width="1.97708"/>
<path opacity="0.5" d="M907.922 228.325L235.795 535.427" stroke="url(#paint2_linear_212_1675)" stroke-width="1.97708"/>
<path opacity="0.5" d="M934.281 325.591L214.691 157.494" stroke="url(#paint3_linear_212_1675)" stroke-width="1.97708"/>
<path opacity="0.8" d="M670.122 60.4546L677.524 43.7285H679.399L686.801 60.4546H684.547L682.506 55.7096L683.527 56.279H673.372L674.393 55.7096L672.376 60.4546H670.122ZM678.426 46.2196L674.725 54.9741L674.155 54.4759H682.744L682.198 54.9741L678.473 46.2196H678.426Z" fill="#F2E6D4"/>
<path opacity="0.8" d="M648.919 60.4546V43.7285H651.126V51.0358H660.806V43.7285H663.012V60.4546H660.806V52.9101H651.126V60.4546H648.919Z" fill="#F2E6D4"/>
<path opacity="0.8" d="M633.012 60.6682C631.826 60.6682 630.759 60.4705 629.81 60.0751C628.861 59.6797 628.046 59.1024 627.366 58.3432C626.686 57.584 626.164 56.6825 625.8 55.6386C625.436 54.5789 625.254 53.3926 625.254 52.0798C625.254 50.7671 625.436 49.5887 625.8 48.5448C626.164 47.4851 626.678 46.5836 627.342 45.8402C628.022 45.081 628.837 44.5037 629.786 44.1083C630.751 43.7128 631.826 43.5151 633.012 43.5151C634.199 43.5151 635.266 43.7128 636.215 44.1083C637.164 44.5037 637.979 45.0731 638.659 45.8165C639.339 46.5598 639.853 47.4614 640.201 48.5211C640.565 49.565 640.747 50.7433 640.747 52.0561C640.747 53.3689 640.565 54.5551 640.201 55.6148C639.837 56.6746 639.315 57.584 638.635 58.3432C637.971 59.1024 637.164 59.6797 636.215 60.0751C635.266 60.4705 634.199 60.6682 633.012 60.6682ZM633.012 58.7228C634.151 58.7228 635.124 58.4618 635.931 57.9399C636.737 57.4179 637.354 56.6587 637.781 55.6623C638.224 54.6658 638.445 53.4717 638.445 52.0798C638.445 50.6722 638.232 49.478 637.805 48.4974C637.378 47.5009 636.761 46.7496 635.954 46.2435C635.148 45.7216 634.167 45.4606 633.012 45.4606C631.874 45.4606 630.893 45.7216 630.071 46.2435C629.264 46.7496 628.647 47.5009 628.22 48.4974C627.793 49.478 627.579 50.6722 627.579 52.0798C627.579 53.4717 627.793 54.6658 628.22 55.6623C628.647 56.6587 629.264 57.4179 630.071 57.9399C630.893 58.4618 631.874 58.7228 633.012 58.7228Z" fill="#F2E6D4"/>
<path opacity="0.8" d="M606.252 60.4546V43.7285H613.014C614.216 43.7285 615.236 43.9262 616.074 44.3216C616.912 44.7171 617.545 45.2944 617.972 46.0536C618.415 46.7969 618.636 47.7064 618.636 48.7819C618.636 49.8575 618.415 50.7748 617.972 51.534C617.545 52.2932 616.912 52.8705 616.074 53.2659C615.236 53.6613 614.216 53.8591 613.014 53.8591H608.458V60.4546H606.252ZM608.458 52.0797H612.729C613.963 52.0797 614.888 51.8029 615.505 51.2493C616.137 50.6799 616.454 49.8575 616.454 48.7819C616.454 47.7064 616.137 46.8997 615.505 46.362C614.888 45.8084 613.963 45.5316 612.729 45.5316H608.458V52.0797Z" fill="#F2E6D4"/>
<path opacity="0.8" d="M590.344 60.6682C589.158 60.6682 588.091 60.4705 587.142 60.0751C586.193 59.6797 585.378 59.1024 584.698 58.3432C584.018 57.584 583.496 56.6825 583.132 55.6386C582.768 54.5789 582.586 53.3926 582.586 52.0798C582.586 50.7671 582.768 49.5887 583.132 48.5448C583.496 47.4851 584.01 46.5836 584.674 45.8402C585.354 45.081 586.169 44.5037 587.118 44.1083C588.083 43.7128 589.158 43.5151 590.344 43.5151C591.531 43.5151 592.598 43.7128 593.547 44.1083C594.496 44.5037 595.311 45.0731 595.991 45.8165C596.671 46.5598 597.185 47.4614 597.533 48.5211C597.897 49.565 598.079 50.7433 598.079 52.0561C598.079 53.3689 597.897 54.5551 597.533 55.6148C597.169 56.6746 596.647 57.584 595.967 58.3432C595.303 59.1024 594.496 59.6797 593.547 60.0751C592.598 60.4705 591.531 60.6682 590.344 60.6682ZM590.344 58.7228C591.483 58.7228 592.456 58.4618 593.263 57.9399C594.069 57.4179 594.686 56.6587 595.113 55.6623C595.556 54.6658 595.777 53.4717 595.777 52.0798C595.777 50.6722 595.564 49.478 595.137 48.4974C594.71 47.5009 594.093 46.7496 593.286 46.2435C592.48 45.7216 591.499 45.4606 590.344 45.4606C589.206 45.4606 588.225 45.7216 587.403 46.2435C586.596 46.7496 585.979 47.5009 585.552 48.4974C585.125 49.478 584.911 50.6722 584.911 52.0798C584.911 53.4717 585.125 54.6658 585.552 55.6623C585.979 56.6587 586.596 57.4179 587.403 57.9399C588.225 58.4618 589.206 58.7228 590.344 58.7228Z" fill="#F2E6D4"/>
<path opacity="0.8" d="M569.101 60.4546V45.6028H563.099V43.7285H577.31V45.6028H571.307V60.4546H569.101Z" fill="#F2E6D4"/>
<path opacity="0.8" d="M551.875 60.6682C550.215 60.6682 548.791 60.3203 547.605 59.6243C546.419 58.9284 545.501 57.9399 544.853 56.6587C544.22 55.3618 543.904 53.8355 543.904 52.0798C543.904 50.3242 544.22 48.8058 544.853 47.5246C545.501 46.2435 546.419 45.255 547.605 44.559C548.791 43.8631 550.215 43.5151 551.875 43.5151C553.014 43.5151 554.074 43.697 555.055 44.0608C556.051 44.4088 556.881 44.9307 557.546 45.6267L556.739 47.3823C556.011 46.7338 555.26 46.2593 554.485 45.9588C553.71 45.6583 552.856 45.508 551.923 45.508C550.088 45.508 548.68 46.0774 547.7 47.2162C546.735 48.355 546.253 49.9762 546.253 52.0798C546.253 54.1834 546.735 55.8125 547.7 56.9672C548.68 58.106 550.088 58.6754 551.923 58.6754C552.856 58.6754 553.71 58.5251 554.485 58.2246C555.26 57.9241 556.011 57.4496 556.739 56.8011L557.546 58.5567C556.881 59.2368 556.051 59.7588 555.055 60.1226C554.074 60.4864 553.014 60.6682 551.875 60.6682Z" fill="#F2E6D4"/>
<path opacity="0.8" d="M511.719 60.4546L514.637 55.069C515.001 54.3731 515.412 53.867 515.871 53.5506C516.346 53.2343 516.899 53.0761 517.532 53.0761H518.172L518.054 53.4083C516.883 53.4083 515.879 53.2185 515.041 52.8389C514.202 52.4593 513.562 51.9136 513.119 51.2019C512.676 50.4743 512.455 49.6044 512.455 48.5921C512.455 47.0421 512.937 45.8479 513.902 45.0097C514.867 44.1556 516.251 43.7285 518.054 43.7285H524.839V60.4546H522.633V53.4795H519.999C519.525 53.4795 519.106 53.5269 518.742 53.6218C518.394 53.7009 518.078 53.8591 517.793 54.0963C517.524 54.3336 517.271 54.6736 517.034 55.1165L514.139 60.4546H511.719ZM518.41 51.7713H522.633V45.5316H518.41C517.16 45.5316 516.211 45.7926 515.563 46.3145C514.93 46.8365 514.614 47.6115 514.614 48.6396C514.614 49.6677 514.93 50.4506 515.563 50.9883C516.211 51.5103 517.16 51.7713 518.41 51.7713Z" fill="#F2E6D4"/>
<path opacity="0.8" d="M490.965 60.4546L493.883 55.069C494.247 54.3731 494.658 53.867 495.117 53.5506C495.591 53.2343 496.145 53.0761 496.777 53.0761H497.418L497.299 53.4083C496.129 53.4083 495.125 53.2185 494.286 52.8389C493.448 52.4593 492.807 51.9136 492.365 51.2019C491.922 50.4743 491.7 49.6044 491.7 48.5921C491.7 47.0421 492.183 45.8479 493.148 45.0097C494.112 44.1556 495.496 43.7285 497.299 43.7285H504.085V60.4546H501.878V53.4795H499.245C498.77 53.4795 498.351 53.5269 497.987 53.6218C497.639 53.7009 497.323 53.8591 497.038 54.0963C496.77 54.3336 496.516 54.6736 496.279 55.1165L493.385 60.4546H490.965ZM497.655 51.7713H501.878V45.5316H497.655C496.406 45.5316 495.457 45.7926 494.808 46.3145C494.176 46.8365 493.859 47.6115 493.859 48.6396C493.859 49.6677 494.176 50.4506 494.808 50.9883C495.457 51.5103 496.406 51.7713 497.655 51.7713Z" fill="#F2E6D4"/>
<path opacity="0.8" d="M469.24 60.4546V43.7285H471.447V51.0358H481.126V43.7285H483.333V60.4546H481.126V52.9101H471.447V60.4546H469.24Z" fill="#F2E6D4"/>
<path opacity="0.8" d="M454.165 60.4546V45.6028H448.163V43.7285H462.374V45.6028H456.371V60.4546H454.165Z" fill="#F2E6D4"/>
<path opacity="0.8" d="M431.693 60.4546V43.7285H442.369V45.5316H433.828V51.0595H441.871V52.8626H433.828V58.6515H442.369V60.4546H431.693Z" fill="#F2E6D4"/>
<path opacity="0.8" d="M408.747 60.8104L407.68 59.126C408.312 58.778 408.874 58.3668 409.364 57.8923C409.854 57.4178 410.266 56.8009 410.598 56.0417C410.946 55.2667 411.207 54.294 411.381 53.1236C411.571 51.9532 411.665 50.498 411.665 48.7582V43.7285H422.935V60.4546H420.728V45.6028H413.706V49.3276C413.706 51.0358 413.595 52.5225 413.374 53.7879C413.168 55.0532 412.852 56.1366 412.425 57.0382C411.998 57.9397 411.476 58.6989 410.859 59.3158C410.242 59.9168 409.538 60.415 408.747 60.8104Z" fill="#F2E6D4"/>
<path opacity="0.8" d="M677.536 791.177L684.938 774.451H686.812L694.214 791.177H691.96L689.92 786.432L690.94 787.001H680.786L681.806 786.432L679.79 791.177H677.536ZM685.839 776.942L682.138 785.696L681.569 785.198H690.157L689.612 785.696L685.887 776.942H685.839Z" fill="#F2E6D4"/>
<path opacity="0.8" d="M656.333 791.177V774.451H658.54V781.758H668.22V774.451H670.426V791.177H668.22V783.632H658.54V791.177H656.333Z" fill="#F2E6D4"/>
<path opacity="0.8" d="M640.427 791.39C639.24 791.39 638.173 791.193 637.224 790.797C636.275 790.402 635.46 789.825 634.78 789.065C634.1 788.306 633.578 787.405 633.214 786.361C632.85 785.301 632.668 784.115 632.668 782.802C632.668 781.489 632.85 780.311 633.214 779.267C633.578 778.207 634.092 777.306 634.756 776.562C635.436 775.803 636.251 775.226 637.2 774.83C638.165 774.435 639.24 774.237 640.427 774.237C641.613 774.237 642.68 774.435 643.629 774.83C644.578 775.226 645.393 775.795 646.073 776.539C646.753 777.282 647.267 778.184 647.615 779.243C647.979 780.287 648.161 781.465 648.161 782.778C648.161 784.091 647.979 785.277 647.615 786.337C647.251 787.397 646.729 788.306 646.049 789.065C645.385 789.825 644.578 790.402 643.629 790.797C642.68 791.193 641.613 791.39 640.427 791.39ZM640.427 789.445C641.565 789.445 642.538 789.184 643.345 788.662C644.151 788.14 644.768 787.381 645.195 786.384C645.638 785.388 645.86 784.194 645.86 782.802C645.86 781.394 645.646 780.2 645.219 779.22C644.792 778.223 644.175 777.472 643.368 776.966C642.562 776.444 641.581 776.183 640.427 776.183C639.288 776.183 638.307 776.444 637.485 776.966C636.678 777.472 636.061 778.223 635.634 779.22C635.207 780.2 634.993 781.394 634.993 782.802C634.993 784.194 635.207 785.388 635.634 786.384C636.061 787.381 636.678 788.14 637.485 788.662C638.307 789.184 639.288 789.445 640.427 789.445Z" fill="#F2E6D4"/>
<path opacity="0.8" d="M613.666 791.177V774.451H620.428C621.63 774.451 622.65 774.648 623.488 775.044C624.326 775.439 624.959 776.017 625.386 776.776C625.829 777.519 626.05 778.429 626.05 779.504C626.05 780.58 625.829 781.497 625.386 782.256C624.959 783.015 624.326 783.593 623.488 783.988C622.65 784.384 621.63 784.581 620.428 784.581H615.872V791.177H613.666ZM615.872 782.802H620.143C621.377 782.802 622.302 782.525 622.919 781.971C623.551 781.402 623.868 780.58 623.868 779.504C623.868 778.429 623.551 777.622 622.919 777.084C622.302 776.531 621.377 776.254 620.143 776.254H615.872V782.802Z" fill="#F2E6D4"/>
<path opacity="0.8" d="M597.759 791.39C596.572 791.39 595.505 791.193 594.556 790.797C593.607 790.402 592.792 789.825 592.112 789.065C591.432 788.306 590.91 787.405 590.546 786.361C590.182 785.301 590 784.115 590 782.802C590 781.489 590.182 780.311 590.546 779.267C590.91 778.207 591.424 777.306 592.088 776.562C592.768 775.803 593.583 775.226 594.532 774.83C595.497 774.435 596.572 774.237 597.759 774.237C598.945 774.237 600.012 774.435 600.961 774.83C601.91 775.226 602.725 775.795 603.405 776.539C604.085 777.282 604.599 778.184 604.947 779.243C605.311 780.287 605.493 781.465 605.493 782.778C605.493 784.091 605.311 785.277 604.947 786.337C604.583 787.397 604.061 788.306 603.381 789.065C602.717 789.825 601.91 790.402 600.961 790.797C600.012 791.193 598.945 791.39 597.759 791.39ZM597.759 789.445C598.897 789.445 599.87 789.184 600.677 788.662C601.483 788.14 602.1 787.381 602.527 786.384C602.97 785.388 603.192 784.194 603.192 782.802C603.192 781.394 602.978 780.2 602.551 779.22C602.124 778.223 601.507 777.472 600.7 776.966C599.894 776.444 598.913 776.183 597.759 776.183C596.62 776.183 595.639 776.444 594.817 776.966C594.01 777.472 593.393 778.223 592.966 779.22C592.539 780.2 592.326 781.394 592.326 782.802C592.326 784.194 592.539 785.388 592.966 786.384C593.393 787.381 594.01 788.14 594.817 788.662C595.639 789.184 596.62 789.445 597.759 789.445Z" fill="#F2E6D4"/>
<path opacity="0.8" d="M576.515 791.177V776.325H570.513V774.451H584.724V776.325H578.722V791.177H576.515Z" fill="#F2E6D4"/>
<path opacity="0.8" d="M559.289 791.39C557.629 791.39 556.205 791.042 555.019 790.347C553.833 789.651 552.915 788.662 552.267 787.381C551.634 786.084 551.318 784.558 551.318 782.802C551.318 781.046 551.634 779.528 552.267 778.247C552.915 776.966 553.833 775.977 555.019 775.281C556.205 774.585 557.629 774.237 559.289 774.237C560.428 774.237 561.488 774.419 562.469 774.783C563.465 775.131 564.295 775.653 564.96 776.349L564.153 778.104C563.425 777.456 562.674 776.981 561.899 776.681C561.124 776.38 560.27 776.23 559.337 776.23C557.502 776.23 556.094 776.8 555.114 777.938C554.149 779.077 553.667 780.698 553.667 782.802C553.667 784.906 554.149 786.535 555.114 787.689C556.094 788.828 557.502 789.398 559.337 789.398C560.27 789.398 561.124 789.247 561.899 788.947C562.674 788.646 563.425 788.172 564.153 787.523L564.96 789.279C564.295 789.959 563.465 790.481 562.469 790.845C561.488 791.209 560.428 791.39 559.289 791.39Z" fill="#F2E6D4"/>
<path opacity="0.8" d="M519.133 791.177L522.051 785.791C522.415 785.095 522.826 784.589 523.285 784.273C523.76 783.956 524.313 783.798 524.946 783.798H525.586L525.468 784.13C524.297 784.13 523.293 783.941 522.455 783.561C521.617 783.181 520.976 782.636 520.533 781.924C520.09 781.196 519.869 780.327 519.869 779.314C519.869 777.764 520.351 776.57 521.316 775.732C522.281 774.878 523.665 774.451 525.468 774.451H532.253V791.177H530.047V784.202H527.413C526.939 784.202 526.52 784.249 526.156 784.344C525.808 784.423 525.492 784.581 525.207 784.818C524.938 785.056 524.685 785.396 524.448 785.839L521.553 791.177H519.133ZM525.824 782.493H530.047V776.254H525.824C524.574 776.254 523.625 776.515 522.977 777.037C522.344 777.559 522.028 778.334 522.028 779.362C522.028 780.39 522.344 781.173 522.977 781.711C523.625 782.232 524.574 782.493 525.824 782.493Z" fill="#F2E6D4"/>
<path opacity="0.8" d="M498.379 791.177L501.297 785.791C501.661 785.095 502.072 784.589 502.531 784.273C503.005 783.956 503.559 783.798 504.192 783.798H504.832L504.713 784.13C503.543 784.13 502.539 783.941 501.7 783.561C500.862 783.181 500.222 782.636 499.779 781.924C499.336 781.196 499.114 780.327 499.114 779.314C499.114 777.764 499.597 776.57 500.562 775.732C501.526 774.878 502.91 774.451 504.713 774.451H511.499V791.177H509.292V784.202H506.659C506.184 784.202 505.765 784.249 505.401 784.344C505.054 784.423 504.737 784.581 504.452 784.818C504.184 785.056 503.931 785.396 503.693 785.839L500.799 791.177H498.379ZM505.069 782.493H509.292V776.254H505.069C503.82 776.254 502.871 776.515 502.222 777.037C501.59 777.559 501.273 778.334 501.273 779.362C501.273 780.39 501.59 781.173 502.222 781.711C502.871 782.232 503.82 782.493 505.069 782.493Z" fill="#F2E6D4"/>
<path opacity="0.8" d="M476.654 791.177V774.451H478.861V781.758H488.54V774.451H490.747V791.177H488.54V783.632H478.861V791.177H476.654Z" fill="#F2E6D4"/>
<path opacity="0.8" d="M451.591 791.177V774.451H453.442L460.109 786.954H459.373L466.016 774.451H467.843V791.177H465.85V777.511H466.372L460.417 788.614H459.041L453.015 777.487H453.584V791.177H451.591Z" fill="#F2E6D4"/>
<path opacity="0.8" d="M429.214 791.177V774.451H431.254V788.259H430.732L441.1 774.451H442.785V791.177H440.72V777.345H441.242L430.875 791.177H429.214Z" fill="#F2E6D4"/>
<path opacity="0.8" d="M414.655 791.39C413.721 791.39 412.852 791.311 412.045 791.153C411.254 790.979 410.534 790.734 409.886 790.418C409.237 790.086 408.668 789.706 408.178 789.279L408.961 787.571C409.688 788.203 410.503 788.678 411.404 788.994C412.306 789.311 413.342 789.469 414.512 789.469C415.999 789.469 417.09 789.216 417.786 788.709C418.482 788.203 418.83 787.444 418.83 786.432C418.83 785.467 418.53 784.755 417.929 784.297C417.328 783.838 416.418 783.609 415.2 783.609H411.12V781.806H414.797C415.999 781.806 416.901 781.576 417.502 781.118C418.118 780.643 418.427 779.947 418.427 779.03C418.427 778.144 418.103 777.44 417.454 776.918C416.822 776.396 415.849 776.135 414.536 776.135C413.555 776.135 412.622 776.293 411.736 776.61C410.851 776.91 410.044 777.369 409.317 777.986L408.557 776.301C409.063 775.843 409.641 775.463 410.289 775.163C410.938 774.862 411.642 774.633 412.401 774.475C413.16 774.316 413.935 774.237 414.726 774.237C416.039 774.237 417.13 774.427 418 774.807C418.87 775.186 419.526 775.724 419.969 776.42C420.412 777.1 420.633 777.899 420.633 778.816C420.633 779.844 420.325 780.706 419.708 781.402C419.107 782.098 418.292 782.565 417.264 782.802V782.446C418.435 782.588 419.352 783.023 420.016 783.751C420.697 784.463 421.037 785.396 421.037 786.551C421.037 787.547 420.807 788.409 420.349 789.137C419.89 789.864 419.186 790.426 418.237 790.821C417.304 791.201 416.11 791.39 414.655 791.39Z" fill="#F2E6D4"/>
<path opacity="0.6" d="M626.237 92.2761C625.462 92.2761 624.766 92.1259 624.149 91.8253C623.548 91.5248 623.065 91.1136 622.702 90.5916C622.354 90.0697 622.18 89.4845 622.18 88.836C622.18 87.9819 622.393 87.3097 622.82 86.8194C623.247 86.3291 623.967 85.989 624.979 85.7992C625.991 85.5936 627.383 85.4908 629.155 85.4908H630.175V86.5584H629.179C628.119 86.5584 627.225 86.59 626.498 86.6533C625.786 86.7166 625.224 86.8352 624.813 87.0092C624.402 87.1674 624.109 87.3888 623.935 87.6735C623.777 87.9582 623.698 88.3061 623.698 88.7174C623.698 89.4291 623.943 90.0064 624.434 90.4493C624.924 90.8922 625.588 91.1136 626.426 91.1136C627.107 91.1136 627.7 90.9554 628.206 90.6391C628.728 90.3069 629.139 89.8562 629.439 89.2868C629.74 88.7174 629.89 88.0689 629.89 87.3413V84.6367C629.89 83.577 629.677 82.8099 629.25 82.3354C628.823 81.8451 628.143 81.5999 627.209 81.5999C626.513 81.5999 625.841 81.7027 625.193 81.9083C624.56 82.1139 623.904 82.4382 623.224 82.8811L622.654 81.766C623.065 81.4813 623.516 81.2361 624.007 81.0305C624.513 80.8249 625.035 80.6667 625.572 80.556C626.126 80.4295 626.664 80.3662 627.186 80.3662C628.119 80.3662 628.886 80.5244 629.487 80.8407C630.104 81.157 630.555 81.6315 630.839 82.2642C631.14 82.8969 631.29 83.7114 631.29 84.7079V92.0863H629.914V89.3105H630.151C630.009 89.9273 629.756 90.4572 629.392 90.9001C629.028 91.3429 628.577 91.683 628.04 91.9202C627.502 92.1575 626.901 92.2761 626.237 92.2761Z" fill="#F2E6D4"/>
<path opacity="0.6" d="M607.563 95.1709V90.9004H608.726C609.121 90.331 609.438 89.7142 609.675 89.0499C609.928 88.3698 610.11 87.6185 610.221 86.796C610.331 85.9577 610.387 85.0404 610.387 84.0439V80.5801H618.169V90.9004H619.948V95.1709H618.69V92.0867H608.821V95.1709H607.563ZM610.221 90.9004H616.769V81.7663H611.715V84.1863C611.715 85.4674 611.581 86.7011 611.312 87.8874C611.059 89.0578 610.695 90.0621 610.221 90.9004Z" fill="#F2E6D4"/>
<path opacity="0.6" d="M599.917 92.2761C599.142 92.2761 598.446 92.1259 597.829 91.8253C597.228 91.5248 596.746 91.1136 596.382 90.5916C596.034 90.0697 595.86 89.4845 595.86 88.836C595.86 87.9819 596.073 87.3097 596.5 86.8194C596.927 86.3291 597.647 85.989 598.659 85.7992C599.672 85.5936 601.064 85.4908 602.835 85.4908H603.855V86.5584H602.859C601.799 86.5584 600.905 86.59 600.178 86.6533C599.466 86.7166 598.905 86.8352 598.493 87.0092C598.082 87.1674 597.789 87.3888 597.615 87.6735C597.457 87.9582 597.378 88.3061 597.378 88.7174C597.378 89.4291 597.623 90.0064 598.114 90.4493C598.604 90.8922 599.268 91.1136 600.107 91.1136C600.787 91.1136 601.38 90.9554 601.886 90.6391C602.408 90.3069 602.819 89.8562 603.12 89.2868C603.42 88.7174 603.57 88.0689 603.57 87.3413V84.6367C603.57 83.577 603.357 82.8099 602.93 82.3354C602.503 81.8451 601.823 81.5999 600.89 81.5999C600.194 81.5999 599.521 81.7027 598.873 81.9083C598.24 82.1139 597.584 82.4382 596.904 82.8811L596.334 81.766C596.746 81.4813 597.196 81.2361 597.687 81.0305C598.193 80.8249 598.715 80.6667 599.253 80.556C599.806 80.4295 600.344 80.3662 600.866 80.3662C601.799 80.3662 602.566 80.5244 603.167 80.8407C603.784 81.157 604.235 81.6315 604.519 82.2642C604.82 82.8969 604.97 83.7114 604.97 84.7079V92.0863H603.594V89.3105H603.831C603.689 89.9273 603.436 90.4572 603.072 90.9001C602.708 91.3429 602.258 91.683 601.72 91.9202C601.182 92.1575 600.581 92.2761 599.917 92.2761Z" fill="#F2E6D4"/>
<path opacity="0.6" d="M582.16 92.3239L581.543 91.1851C582.097 90.932 582.555 90.6078 582.919 90.2124C583.299 89.817 583.591 89.3188 583.797 88.7177C584.018 88.1167 584.176 87.3733 584.271 86.4876C584.366 85.6018 584.414 84.5184 584.414 83.2373V80.5801H592.362V92.0867H590.914V81.7663H585.79V83.2847C585.79 84.6766 585.726 85.8865 585.6 86.9146C585.473 87.9269 585.268 88.781 584.983 89.4769C584.698 90.1728 584.327 90.7502 583.868 91.2088C583.409 91.6675 582.84 92.0392 582.16 92.3239Z" fill="#F2E6D4"/>
<path opacity="0.6" d="M569.172 92.0867L574.225 85.7521V86.535L569.433 80.5801H571.165L575.032 85.4674H574.51L578.401 80.5801H580.109L575.364 86.4876V85.8233L580.394 92.0867H578.638L574.51 86.8909H575.032L570.88 92.0867H569.172Z" fill="#F2E6D4"/>
<path opacity="0.6" d="M562.199 92.2761C561.123 92.2761 560.19 92.031 559.399 91.5406C558.608 91.0503 557.992 90.3623 557.549 89.4766C557.122 88.5908 556.908 87.539 556.908 86.3212C556.908 85.1191 557.122 84.0752 557.549 83.1895C557.992 82.2879 558.608 81.592 559.399 81.1017C560.19 80.6114 561.123 80.3662 562.199 80.3662C563.29 80.3662 564.231 80.6114 565.022 81.1017C565.813 81.592 566.422 82.2879 566.849 83.1895C567.292 84.0752 567.513 85.1191 567.513 86.3212C567.513 87.539 567.292 88.5908 566.849 89.4766C566.422 90.3623 565.813 91.0503 565.022 91.5406C564.231 92.031 563.29 92.2761 562.199 92.2761ZM562.199 91.0661C563.385 91.0661 564.318 90.6549 564.998 89.8324C565.694 89.01 566.042 87.8396 566.042 86.3212C566.042 84.8186 565.694 83.6561 564.998 82.8336C564.318 82.0111 563.385 81.5999 562.199 81.5999C561.044 81.5999 560.119 82.0111 559.423 82.8336C558.727 83.6561 558.379 84.8186 558.379 86.3212C558.379 87.8396 558.727 89.01 559.423 89.8324C560.119 90.6549 561.044 91.0661 562.199 91.0661Z" fill="#F2E6D4"/>
<path opacity="0.6" d="M543.788 96.3568V80.5797H545.235V83.4504H544.974C545.243 82.5015 545.757 81.7502 546.516 81.1966C547.276 80.643 548.193 80.3662 549.269 80.3662C550.297 80.3662 551.19 80.6114 551.949 81.1017C552.724 81.592 553.318 82.28 553.729 83.1657C554.156 84.0515 554.369 85.1033 554.369 86.3212C554.369 87.539 554.156 88.5988 553.729 89.5003C553.318 90.386 552.732 91.0741 551.973 91.5644C551.214 92.0389 550.312 92.2761 549.269 92.2761C548.193 92.2761 547.276 91.9993 546.516 91.4457C545.757 90.8922 545.243 90.1567 544.974 89.2393H545.235V96.3568H543.788ZM549.055 91.0661C550.225 91.0661 551.159 90.6549 551.855 89.8324C552.55 89.01 552.898 87.8396 552.898 86.3212C552.898 84.8186 552.55 83.6561 551.855 82.8336C551.159 82.0111 550.225 81.5999 549.055 81.5999C547.885 81.5999 546.951 82.0111 546.255 82.8336C545.56 83.6561 545.212 84.8186 545.212 86.3212C545.212 87.8396 545.56 89.01 546.255 89.8324C546.951 90.6549 547.885 91.0661 549.055 91.0661Z" fill="#F2E6D4"/>
<path opacity="0.6" d="M530.165 92.0867V80.5801H539.797V92.0867H538.35V81.7663H531.612V92.0867H530.165Z" fill="#F2E6D4"/>
<path opacity="0.6" d="M510.564 92.0867V80.5801H511.893V90.8055H511.323L518.939 80.5801H520.22V92.0867H518.891V81.8612H519.461L511.821 92.0867H510.564Z" fill="#F2E6D4"/>
<path opacity="0.6" d="M492.029 92.0867V80.5801H493.476V84.8268H497.153C498.593 84.8268 499.684 85.1432 500.427 85.7758C501.187 86.4085 501.566 87.2942 501.566 88.433C501.566 89.1922 501.392 89.8486 501.044 90.4022C500.712 90.9558 500.222 91.3749 499.573 91.6596C498.925 91.9443 498.118 92.0867 497.153 92.0867H492.029ZM493.476 90.9716H497.106C498.055 90.9716 498.79 90.766 499.312 90.3547C499.85 89.9435 500.119 89.3108 500.119 88.4567C500.119 87.5868 499.85 86.9463 499.312 86.535C498.79 86.1238 498.055 85.9182 497.106 85.9182H493.476V90.9716Z" fill="#F2E6D4"/>
<path opacity="0.6" d="M484.207 92.0867V81.79H479.913V80.5801H489.949V81.79H485.655V92.0867H484.207Z" fill="#F2E6D4"/>
<path opacity="0.6" d="M475.434 92.2761C474.311 92.2761 473.346 92.031 472.54 91.5406C471.733 91.0345 471.108 90.3307 470.665 89.4291C470.238 88.5118 470.025 87.4521 470.025 86.25C470.025 85.0321 470.238 83.9882 470.665 83.1183C471.108 82.2484 471.733 81.5762 472.54 81.1017C473.346 80.6114 474.311 80.3662 475.434 80.3662C476.146 80.3662 476.834 80.5007 477.498 80.7695C478.178 81.0384 478.748 81.4101 479.206 81.8846L478.637 82.976C478.147 82.5015 477.625 82.1614 477.071 81.9558C476.518 81.7343 475.988 81.6236 475.482 81.6236C474.2 81.6236 473.212 82.027 472.516 82.8336C471.836 83.6244 471.496 84.7711 471.496 86.2737C471.496 87.7605 471.836 88.9309 472.516 89.785C473.212 90.6233 474.2 91.0424 475.482 91.0424C475.988 91.0424 476.518 90.9396 477.071 90.734C477.625 90.5126 478.147 90.1646 478.637 89.6901L479.206 90.7814C478.748 91.2401 478.17 91.6039 477.475 91.8728C476.794 92.1417 476.114 92.2761 475.434 92.2761Z" fill="#F2E6D4"/>
<path opacity="0.6" d="M462.155 92.2761C461.08 92.2761 460.147 92.031 459.356 91.5406C458.565 91.0503 457.948 90.3623 457.505 89.4766C457.078 88.5908 456.865 87.539 456.865 86.3212C456.865 85.1191 457.078 84.0752 457.505 83.1895C457.948 82.2879 458.565 81.592 459.356 81.1017C460.147 80.6114 461.08 80.3662 462.155 80.3662C463.247 80.3662 464.188 80.6114 464.979 81.1017C465.769 81.592 466.378 82.2879 466.805 83.1895C467.248 84.0752 467.47 85.1191 467.47 86.3212C467.47 87.539 467.248 88.5908 466.805 89.4766C466.378 90.3623 465.769 91.0503 464.979 91.5406C464.188 92.031 463.247 92.2761 462.155 92.2761ZM462.155 91.0661C463.342 91.0661 464.275 90.6549 464.955 89.8324C465.651 89.01 465.999 87.8396 465.999 86.3212C465.999 84.8186 465.651 83.6561 464.955 82.8336C464.275 82.0111 463.342 81.5999 462.155 81.5999C461.001 81.5999 460.076 82.0111 459.38 82.8336C458.684 83.6561 458.336 84.8186 458.336 86.3212C458.336 87.8396 458.684 89.01 459.38 89.8324C460.076 90.6549 461.001 91.0661 462.155 91.0661Z" fill="#F2E6D4"/>
<path opacity="0.6" d="M445.459 92.0867V80.5801H446.907V85.5386H449.279L453.241 80.5801H454.878L450.513 86.0843L450.015 85.6335C450.473 85.6809 450.861 85.7916 451.177 85.9656C451.494 86.1238 451.802 86.3848 452.102 86.7486C452.419 87.1123 452.775 87.6106 453.17 88.2432L455.495 92.0867H453.929L451.794 88.5516C451.494 88.0771 451.209 87.7055 450.94 87.4366C450.687 87.1677 450.394 86.9858 450.062 86.8909C449.746 86.7802 449.342 86.7248 448.852 86.7248H446.907V92.0867H445.459Z" fill="#F2E6D4"/>
<path opacity="0.6" d="M435.381 92.0867V80.5801H443.163V81.79H436.828V92.0867H435.381Z" fill="#F2E6D4"/>
<path opacity="0.6" d="M427.69 92.2764C426.504 92.2764 425.484 92.0392 424.63 91.5647C423.776 91.0902 423.119 90.41 422.661 89.5243C422.202 88.6386 421.973 87.5868 421.973 86.3689C421.973 85.1668 422.202 84.1229 422.661 83.2372C423.119 82.3357 423.752 81.6318 424.559 81.1257C425.381 80.6196 426.322 80.3665 427.382 80.3665C428.41 80.3665 429.28 80.5958 429.992 81.0545C430.719 81.4974 431.273 82.138 431.652 82.9762C432.048 83.7987 432.246 84.7952 432.246 85.9656V86.6299H423.017V85.5623H431.344L430.964 85.8707C430.964 84.5105 430.664 83.4507 430.063 82.6915C429.462 81.9165 428.576 81.529 427.406 81.529C426.536 81.529 425.8 81.7346 425.199 82.1459C424.598 82.5413 424.147 83.0949 423.847 83.8066C423.546 84.5025 423.396 85.3092 423.396 86.2266V86.3452C423.396 87.3574 423.554 88.2194 423.871 88.9312C424.203 89.6271 424.693 90.157 425.342 90.5208C425.99 90.8845 426.757 91.0664 427.643 91.0664C428.355 91.0664 429.019 90.9557 429.636 90.7343C430.268 90.5129 430.885 90.1412 431.486 89.6192L432.056 90.7106C431.55 91.1851 430.901 91.5647 430.11 91.8494C429.319 92.1341 428.513 92.2764 427.69 92.2764ZM428.521 77.4958V75.7876H430.253V77.4958H428.521ZM424.559 77.4958V75.7876H426.291V77.4958H424.559Z" fill="#F2E6D4"/>
<path opacity="0.6" d="M408.486 92.3239L407.869 91.1851C408.423 90.932 408.881 90.6078 409.245 90.2124C409.625 89.817 409.917 89.3188 410.123 88.7177C410.344 88.1167 410.503 87.3733 410.598 86.4876C410.692 85.6018 410.74 84.5184 410.74 83.2373V80.5801H418.688V92.0867H417.24V81.7663H412.116V83.2847C412.116 84.6766 412.053 85.8865 411.926 86.9146C411.8 87.9269 411.594 88.781 411.309 89.4769C411.025 90.1728 410.653 90.7502 410.194 91.2088C409.736 91.6675 409.166 92.0392 408.486 92.3239Z" fill="#F2E6D4"/>
<path opacity="0.6" d="M673.649 819.952V808.445H674.978V818.671H674.409L682.024 808.445H683.305V819.952H681.977V809.727H682.546L674.907 819.952H673.649ZM678.466 806.951C677.912 806.951 677.374 806.848 676.852 806.642C676.346 806.437 675.887 806.112 675.476 805.67C675.081 805.211 674.765 804.634 674.527 803.938L675.476 803.558C675.777 804.365 676.172 804.966 676.662 805.361C677.153 805.741 677.754 805.931 678.466 805.931C679.193 805.931 679.794 805.757 680.269 805.409C680.759 805.061 681.21 804.452 681.621 803.582L682.523 803.938C682.222 804.697 681.858 805.298 681.431 805.741C681.004 806.184 680.538 806.5 680.031 806.69C679.541 806.864 679.019 806.951 678.466 806.951Z" fill="#F2E6D4"/>
<path opacity="0.6" d="M665.068 820.142C663.993 820.142 663.06 819.897 662.269 819.406C661.478 818.916 660.861 818.228 660.418 817.342C659.991 816.457 659.778 815.405 659.778 814.187C659.778 812.985 659.991 811.941 660.418 811.055C660.861 810.154 661.478 809.458 662.269 808.967C663.06 808.477 663.993 808.232 665.068 808.232C666.16 808.232 667.101 808.477 667.892 808.967C668.683 809.458 669.292 810.154 669.719 811.055C670.161 811.941 670.383 812.985 670.383 814.187C670.383 815.405 670.161 816.457 669.719 817.342C669.292 818.228 668.683 818.916 667.892 819.406C667.101 819.897 666.16 820.142 665.068 820.142ZM665.068 818.932C666.255 818.932 667.188 818.521 667.868 817.698C668.564 816.876 668.912 815.705 668.912 814.187C668.912 812.684 668.564 811.522 667.868 810.699C667.188 809.877 666.255 809.466 665.068 809.466C663.914 809.466 662.989 809.877 662.293 810.699C661.597 811.522 661.249 812.684 661.249 814.187C661.249 815.705 661.597 816.876 662.293 817.698C662.989 818.521 663.914 818.932 665.068 818.932Z" fill="#F2E6D4"/>
<path opacity="0.6" d="M645.128 819.952V808.445H646.338L650.822 816.559L655.306 808.445H656.493V819.952H655.212V810.106H655.71L651.202 818.101H650.419L645.911 810.106H646.433V819.952H645.128Z" fill="#F2E6D4"/>
<path opacity="0.6" d="M631.482 819.952V808.445H632.811V818.671H632.241L639.857 808.445H641.138V819.952H639.809V809.726H640.379L632.739 819.952H631.482Z" fill="#F2E6D4"/>
<path opacity="0.6" d="M623.527 820.142C622.546 820.142 621.629 820.007 620.775 819.739C619.937 819.47 619.264 819.098 618.758 818.623L619.304 817.532C619.858 818.007 620.49 818.362 621.202 818.6C621.914 818.837 622.681 818.956 623.503 818.956C624.705 818.956 625.567 818.766 626.089 818.386C626.611 818.007 626.872 817.469 626.872 816.773C626.872 816.093 626.643 815.579 626.184 815.231C625.741 814.867 625.101 814.685 624.262 814.685H621.7V813.546H624.049C624.792 813.546 625.385 813.372 625.828 813.024C626.271 812.661 626.493 812.17 626.493 811.553C626.493 810.905 626.255 810.391 625.781 810.011C625.322 809.632 624.595 809.442 623.598 809.442C622.807 809.442 622.08 809.545 621.415 809.75C620.751 809.956 620.103 810.296 619.47 810.77L618.924 809.679C619.573 809.189 620.3 808.825 621.107 808.588C621.914 808.351 622.776 808.232 623.693 808.232C625.117 808.232 626.176 808.525 626.872 809.11C627.568 809.679 627.916 810.47 627.916 811.482C627.916 812.226 627.655 812.85 627.133 813.357C626.627 813.847 625.955 814.139 625.117 814.234V813.926C625.733 813.942 626.279 814.076 626.754 814.329C627.244 814.566 627.624 814.899 627.892 815.326C628.161 815.753 628.296 816.243 628.296 816.797C628.296 817.809 627.9 818.623 627.109 819.24C626.319 819.841 625.124 820.142 623.527 820.142Z" fill="#F2E6D4"/>
<path opacity="0.6" d="M604.968 820.142C604.193 820.142 603.497 819.992 602.88 819.691C602.279 819.391 601.796 818.979 601.433 818.457C601.085 817.935 600.911 817.35 600.911 816.702C600.911 815.848 601.124 815.175 601.551 814.685C601.978 814.195 602.698 813.855 603.71 813.665C604.722 813.459 606.114 813.357 607.886 813.357H608.906V814.424H607.909C606.85 814.424 605.956 814.456 605.229 814.519C604.517 814.582 603.955 814.701 603.544 814.875C603.133 815.033 602.84 815.255 602.666 815.539C602.508 815.824 602.429 816.172 602.429 816.583C602.429 817.295 602.674 817.872 603.165 818.315C603.655 818.758 604.319 818.979 605.157 818.979C605.838 818.979 606.431 818.821 606.937 818.505C607.459 818.173 607.87 817.722 608.17 817.152C608.471 816.583 608.621 815.935 608.621 815.207V812.502C608.621 811.443 608.408 810.676 607.981 810.201C607.554 809.711 606.874 809.466 605.94 809.466C605.244 809.466 604.572 809.568 603.924 809.774C603.291 809.98 602.635 810.304 601.955 810.747L601.385 809.632C601.796 809.347 602.247 809.102 602.737 808.896C603.244 808.691 603.766 808.532 604.303 808.422C604.857 808.295 605.395 808.232 605.917 808.232C606.85 808.232 607.617 808.39 608.218 808.706C608.835 809.023 609.286 809.497 609.57 810.13C609.871 810.763 610.021 811.577 610.021 812.574V819.952H608.645V817.176H608.882C608.74 817.793 608.487 818.323 608.123 818.766C607.759 819.209 607.308 819.549 606.771 819.786C606.233 820.023 605.632 820.142 604.968 820.142Z" fill="#F2E6D4"/>
<path opacity="0.6" d="M589.292 819.952V808.445H590.739V813.404H593.111L597.073 808.445H598.71L594.345 813.949L593.847 813.499C594.305 813.546 594.693 813.657 595.009 813.831C595.326 813.989 595.634 814.25 595.934 814.614C596.251 814.978 596.607 815.476 597.002 816.108L599.327 819.952H597.761L595.626 816.417C595.326 815.942 595.041 815.571 594.772 815.302C594.519 815.033 594.226 814.851 593.894 814.756C593.578 814.645 593.174 814.59 592.684 814.59H590.739V819.952H589.292Z" fill="#F2E6D4"/>
<path opacity="0.6" d="M569.229 819.952L571.555 816.108C571.95 815.476 572.298 814.978 572.598 814.614C572.915 814.25 573.231 813.989 573.547 813.831C573.88 813.657 574.267 813.546 574.71 813.499L574.235 813.949L569.87 808.445H571.483L575.469 813.404H577.509V808.445H578.957V813.404H580.997L584.959 808.445H586.572L582.207 813.949L581.733 813.499C582.175 813.546 582.555 813.657 582.871 813.831C583.203 813.989 583.52 814.25 583.82 814.614C584.137 814.978 584.493 815.476 584.888 816.108L587.213 819.952H585.647L583.488 816.417C583.203 815.942 582.927 815.571 582.658 815.302C582.405 815.033 582.112 814.851 581.78 814.756C581.464 814.645 581.06 814.59 580.57 814.59H578.957V819.952H577.509V814.59H575.872C575.398 814.59 574.995 814.645 574.663 814.756C574.346 814.851 574.054 815.033 573.785 815.302C573.532 815.571 573.255 815.942 572.954 816.417L570.795 819.952H569.229Z" fill="#F2E6D4"/>
<path opacity="0.6" d="M557.295 824.223V808.445H558.743V811.316H558.482C558.751 810.367 559.265 809.616 560.024 809.062C560.783 808.509 561.7 808.232 562.776 808.232C563.804 808.232 564.698 808.477 565.457 808.967C566.232 809.458 566.825 810.146 567.236 811.031C567.663 811.917 567.877 812.969 567.877 814.187C567.877 815.405 567.663 816.464 567.236 817.366C566.825 818.252 566.24 818.94 565.48 819.43C564.721 819.905 563.82 820.142 562.776 820.142C561.7 820.142 560.783 819.865 560.024 819.311C559.265 818.758 558.751 818.022 558.482 817.105H558.743V824.223H557.295ZM562.562 818.932C563.733 818.932 564.666 818.521 565.362 817.698C566.058 816.876 566.406 815.705 566.406 814.187C566.406 812.684 566.058 811.522 565.362 810.699C564.666 809.877 563.733 809.466 562.562 809.466C561.392 809.466 560.459 809.877 559.763 810.699C559.067 811.522 558.719 812.684 558.719 814.187C558.719 815.705 559.067 816.876 559.763 817.698C560.459 818.521 561.392 818.932 562.562 818.932Z" fill="#F2E6D4"/>
<path opacity="0.6" d="M549.605 820.142C548.419 820.142 547.398 819.905 546.544 819.43C545.69 818.956 545.034 818.275 544.575 817.39C544.117 816.504 543.887 815.452 543.887 814.234C543.887 813.032 544.117 811.988 544.575 811.103C545.034 810.201 545.667 809.497 546.473 808.991C547.296 808.485 548.237 808.232 549.296 808.232C550.325 808.232 551.194 808.461 551.906 808.92C552.634 809.363 553.187 810.003 553.567 810.842C553.962 811.664 554.16 812.661 554.16 813.831V814.495H544.931V813.428H553.259L552.879 813.736C552.879 812.376 552.578 811.316 551.977 810.557C551.376 809.782 550.491 809.394 549.32 809.394C548.45 809.394 547.715 809.6 547.114 810.011C546.513 810.407 546.062 810.96 545.761 811.672C545.461 812.368 545.311 813.175 545.311 814.092V814.211C545.311 815.223 545.469 816.085 545.785 816.797C546.117 817.493 546.608 818.022 547.256 818.386C547.905 818.75 548.672 818.932 549.557 818.932C550.269 818.932 550.934 818.821 551.55 818.6C552.183 818.378 552.8 818.007 553.401 817.485L553.97 818.576C553.464 819.05 552.816 819.43 552.025 819.715C551.234 819.999 550.427 820.142 549.605 820.142Z" fill="#F2E6D4"/>
<path opacity="0.6" d="M529.484 823.036V818.766H530.647C531.042 818.196 531.359 817.579 531.596 816.915C531.849 816.235 532.031 815.484 532.142 814.661C532.252 813.823 532.308 812.906 532.308 811.909V808.445H540.089V818.766H541.869V823.036H540.611V819.952H530.742V823.036H529.484ZM532.142 818.766H538.69V809.632H533.636V812.051C533.636 813.333 533.502 814.566 533.233 815.753C532.98 816.923 532.616 817.927 532.142 818.766Z" fill="#F2E6D4"/>
<path opacity="0.6" d="M515.722 823.036V818.766H516.885C517.28 818.196 517.596 817.579 517.834 816.915C518.087 816.235 518.269 815.484 518.379 814.661C518.49 813.823 518.545 812.906 518.545 811.909V808.445H526.327V818.766H528.107V823.036H526.849V819.952H516.98V823.036H515.722ZM518.379 818.766H524.927V809.632H519.874V812.051C519.874 813.333 519.74 814.566 519.471 815.753C519.218 816.923 518.854 817.927 518.379 818.766Z" fill="#F2E6D4"/>
<path opacity="0.6" d="M508.493 820.142C507.418 820.142 506.485 819.897 505.694 819.406C504.903 818.916 504.286 818.228 503.843 817.342C503.416 816.457 503.203 815.405 503.203 814.187C503.203 812.985 503.416 811.941 503.843 811.055C504.286 810.154 504.903 809.458 505.694 808.967C506.485 808.477 507.418 808.232 508.493 808.232C509.585 808.232 510.526 808.477 511.317 808.967C512.107 809.458 512.716 810.154 513.143 811.055C513.586 811.941 513.808 812.985 513.808 814.187C513.808 815.405 513.586 816.457 513.143 817.342C512.716 818.228 512.107 818.916 511.317 819.406C510.526 819.897 509.585 820.142 508.493 820.142ZM508.493 818.932C509.68 818.932 510.613 818.521 511.293 817.698C511.989 816.876 512.337 815.705 512.337 814.187C512.337 812.684 511.989 811.522 511.293 810.699C510.613 809.877 509.68 809.466 508.493 809.466C507.339 809.466 506.413 809.877 505.717 810.699C505.022 811.522 504.674 812.684 504.674 814.187C504.674 815.705 505.022 816.876 505.717 817.698C506.413 818.521 507.339 818.932 508.493 818.932Z" fill="#F2E6D4"/>
<path opacity="0.6" d="M490.291 819.952V808.445H499.923V819.952H498.476V809.632H491.738V819.952H490.291Z" fill="#F2E6D4"/>
<path opacity="0.6" d="M470.854 819.952L472.657 816.82C472.958 816.298 473.337 815.879 473.796 815.563C474.255 815.231 474.705 815.065 475.148 815.065H475.362V815.231C474.539 815.231 473.828 815.096 473.226 814.827C472.625 814.558 472.159 814.171 471.827 813.665C471.51 813.159 471.352 812.55 471.352 811.838C471.352 810.826 471.692 810.011 472.372 809.394C473.053 808.762 474.081 808.445 475.457 808.445H480.344V819.952H478.944V815.373H477.07C476.358 815.373 475.765 815.547 475.291 815.895C474.816 816.243 474.429 816.67 474.128 817.176L472.538 819.952H470.854ZM475.718 814.258H478.944V809.537H475.718C474.705 809.537 473.962 809.742 473.487 810.154C473.013 810.565 472.776 811.142 472.776 811.885C472.776 812.629 473.013 813.214 473.487 813.641C473.962 814.052 474.705 814.258 475.718 814.258Z" fill="#F2E6D4"/>
<path opacity="0.6" d="M462.781 820.142C462.006 820.142 461.31 819.992 460.693 819.691C460.092 819.391 459.609 818.979 459.246 818.457C458.898 817.935 458.724 817.35 458.724 816.702C458.724 815.848 458.937 815.175 459.364 814.685C459.791 814.195 460.511 813.855 461.523 813.665C462.535 813.459 463.927 813.357 465.699 813.357H466.719V814.424H465.722C464.663 814.424 463.769 814.456 463.042 814.519C462.33 814.582 461.768 814.701 461.357 814.875C460.946 815.033 460.653 815.255 460.479 815.539C460.321 815.824 460.242 816.172 460.242 816.583C460.242 817.295 460.487 817.872 460.977 818.315C461.468 818.758 462.132 818.979 462.97 818.979C463.651 818.979 464.244 818.821 464.75 818.505C465.272 818.173 465.683 817.722 465.983 817.152C466.284 816.583 466.434 815.935 466.434 815.207V812.502C466.434 811.443 466.221 810.676 465.794 810.201C465.367 809.711 464.686 809.466 463.753 809.466C463.057 809.466 462.385 809.568 461.737 809.774C461.104 809.98 460.448 810.304 459.768 810.747L459.198 809.632C459.609 809.347 460.06 809.102 460.55 808.896C461.057 808.691 461.579 808.532 462.116 808.422C462.67 808.295 463.208 808.232 463.73 808.232C464.663 808.232 465.43 808.39 466.031 808.706C466.648 809.023 467.099 809.497 467.383 810.13C467.684 810.763 467.834 811.577 467.834 812.574V819.952H466.458V817.176H466.695C466.553 817.793 466.3 818.323 465.936 818.766C465.572 819.209 465.121 819.549 464.584 819.786C464.046 820.023 463.445 820.142 462.781 820.142Z" fill="#F2E6D4"/>
<path opacity="0.6" d="M445.024 820.189L444.407 819.05C444.96 818.797 445.419 818.473 445.783 818.078C446.162 817.682 446.455 817.184 446.661 816.583C446.882 815.982 447.04 815.239 447.135 814.353C447.23 813.467 447.277 812.384 447.277 811.103V808.445H455.225V819.952H453.778V809.632H448.653V811.15C448.653 812.542 448.59 813.752 448.464 814.78C448.337 815.792 448.132 816.646 447.847 817.342C447.562 818.038 447.19 818.615 446.732 819.074C446.273 819.533 445.704 819.904 445.024 820.189Z" fill="#F2E6D4"/>
<path opacity="0.6" d="M432.207 819.952V808.445H441.839V819.952H440.392V809.632H433.654V819.952H432.207Z" fill="#F2E6D4"/>
<path opacity="0.6" d="M424.516 820.142C423.33 820.142 422.31 819.904 421.456 819.43C420.601 818.955 419.945 818.275 419.486 817.39C419.028 816.504 418.798 815.452 418.798 814.234C418.798 813.032 419.028 811.988 419.486 811.102C419.945 810.201 420.578 809.497 421.384 808.991C422.207 808.485 423.148 808.232 424.208 808.232C425.236 808.232 426.106 808.461 426.817 808.92C427.545 809.363 428.099 810.003 428.478 810.841C428.874 811.664 429.071 812.66 429.071 813.831V814.495H419.842V813.427H428.17L427.79 813.736C427.79 812.376 427.49 811.316 426.889 810.557C426.288 809.782 425.402 809.394 424.231 809.394C423.361 809.394 422.626 809.6 422.025 810.011C421.424 810.407 420.973 810.96 420.673 811.672C420.372 812.368 420.222 813.174 420.222 814.092V814.21C420.222 815.223 420.38 816.085 420.696 816.796C421.028 817.492 421.519 818.022 422.167 818.386C422.816 818.75 423.583 818.932 424.469 818.932C425.18 818.932 425.845 818.821 426.461 818.6C427.094 818.378 427.711 818.006 428.312 817.484L428.881 818.576C428.375 819.05 427.727 819.43 426.936 819.715C426.145 819.999 425.339 820.142 424.516 820.142ZM425.346 805.361V803.653H427.078V805.361H425.346ZM421.384 805.361V803.653H423.116V805.361H421.384Z" fill="#F2E6D4"/>
<path opacity="0.6" d="M411.689 819.952V809.655H407.395V808.445H417.431V809.655H413.136V819.952H411.689Z" fill="#F2E6D4"/>
</g>
<defs>
<linearGradient id="paint0_linear_212_1675" x1="763.464" y1="-0.388672" x2="763.464" y2="738.574" gradientUnits="userSpaceOnUse">
<stop stop-color="#F2E6D4" stop-opacity="0"/>
<stop offset="0.495192" stop-color="#F2E6D4"/>
<stop offset="1" stop-color="#F2E6D4" stop-opacity="0"/>
</linearGradient>
<linearGradient id="paint1_linear_212_1675" x1="908.155" y1="362.375" x2="254.376" y2="706.816" gradientUnits="userSpaceOnUse">
<stop stop-color="#F2E6D4" stop-opacity="0"/>
<stop offset="0.495192" stop-color="#F2E6D4"/>
<stop offset="1" stop-color="#F2E6D4" stop-opacity="0"/>
</linearGradient>
<linearGradient id="paint2_linear_212_1675" x1="908.13" y1="228.779" x2="236.003" y2="535.882" gradientUnits="userSpaceOnUse">
<stop stop-color="#F2E6D4" stop-opacity="0"/>
<stop offset="0.495192" stop-color="#F2E6D4"/>
<stop offset="1" stop-color="#F2E6D4" stop-opacity="0"/>
</linearGradient>
<linearGradient id="paint3_linear_212_1675" x1="934.395" y1="325.104" x2="214.805" y2="157.007" gradientUnits="userSpaceOnUse">
<stop stop-color="#F2E6D4" stop-opacity="0"/>
<stop offset="0.495192" stop-color="#F2E6D4"/>
<stop offset="1" stop-color="#F2E6D4" stop-opacity="0"/>
</linearGradient>
<clipPath id="clip0_212_1675">
<rect width="952" height="886" fill="white"/>
</clipPath>
</defs>
</svg>
