<svg width="120" height="220" viewBox="0 0 120 220" fill="none" xmlns="http://www.w3.org/2000/svg">
<path d="M84.7793 214.695L84.7793 202.005L86.9213 202.005L86.9213 211.473L86.5073 211.473L93.7433 202.005L95.4713 202.005L95.4713 214.695L93.3293 214.695L93.3293 205.209L93.7253 205.209L86.4893 214.695L84.7793 214.695ZM90.1073 201.015C89.4713 201.015 88.9073 200.913 88.4153 200.709C87.9353 200.493 87.5333 200.199 87.2093 199.827C86.8973 199.443 86.6753 198.999 86.5433 198.495L87.6953 198.099C87.9353 198.687 88.2473 199.113 88.6313 199.377C89.0153 199.629 89.5133 199.755 90.1253 199.755C90.7493 199.755 91.2473 199.623 91.6193 199.359C92.0033 199.095 92.3273 198.681 92.5913 198.117L93.7073 198.495C93.4313 199.323 92.9753 199.953 92.3393 200.385C91.7153 200.805 90.9713 201.015 90.1073 201.015Z" fill="#003D57"/>
<path d="M66.3945 214.695L66.3945 202.005L68.6985 202.005L68.6985 207.297L71.5965 207.297C72.4965 207.297 73.2705 207.441 73.9185 207.729C74.5665 208.005 75.0585 208.419 75.3945 208.971C75.7425 209.511 75.9165 210.183 75.9165 210.987C75.9165 211.791 75.7425 212.469 75.3945 213.021C75.0585 213.573 74.5665 213.993 73.9185 214.281C73.2705 214.557 72.4965 214.695 71.5965 214.695L66.3945 214.695ZM68.6985 212.859L71.3085 212.859C72.1245 212.859 72.7245 212.709 73.1085 212.409C73.4925 212.097 73.6845 211.623 73.6845 210.987C73.6845 210.351 73.4925 209.883 73.1085 209.583C72.7245 209.283 72.1245 209.133 71.3085 209.133L68.6985 209.133L68.6985 212.859ZM77.5365 214.695L77.5365 202.005L79.8405 202.005L79.8405 214.695L77.5365 214.695Z" fill="#003D57"/>
<path d="M50.6994 215.001L49.5654 213.291C50.0454 213.015 50.4654 212.697 50.8254 212.337C51.1974 211.965 51.5034 211.503 51.7434 210.951C51.9954 210.387 52.1814 209.691 52.3014 208.863C52.4334 208.035 52.4994 207.033 52.4994 205.857L52.4994 202.005L61.4634 202.005L61.4634 214.695L59.1594 214.695L59.1594 203.931L54.6234 203.931L54.6234 206.451C54.6234 207.675 54.5334 208.749 54.3534 209.673C54.1854 210.597 53.9334 211.401 53.5974 212.085C53.2614 212.769 52.8474 213.351 52.3554 213.831C51.8754 214.299 51.3234 214.689 50.6994 215.001Z" fill="#003D57"/>
<path d="M37.7993 214.695L37.7993 202.005L46.2413 202.005L46.2413 203.841L40.0133 203.841L40.0133 207.333L45.8453 207.333L45.8453 209.169L40.0133 209.169L40.0133 212.859L46.2413 212.859L46.2413 214.695L37.7993 214.695Z" fill="#003D57"/>
<path d="M23.5278 214.695L23.5278 202.005L32.3478 202.005L32.3478 203.841L25.7418 203.841L25.7418 207.297L29.2698 207.297C30.1698 207.297 30.9438 207.441 31.5918 207.729C32.2398 208.005 32.7318 208.419 33.0678 208.971C33.4158 209.511 33.5898 210.183 33.5898 210.987C33.5898 211.791 33.4158 212.469 33.0678 213.021C32.7318 213.573 32.2398 213.993 31.5918 214.281C30.9438 214.557 30.1698 214.695 29.2698 214.695L23.5278 214.695ZM25.7418 212.859L28.9818 212.859C29.7978 212.859 30.3978 212.709 30.7818 212.409C31.1658 212.097 31.3578 211.623 31.3578 210.987C31.3578 210.351 31.1658 209.883 30.7818 209.583C30.3978 209.283 29.7978 209.133 28.9818 209.133L25.7418 209.133L25.7418 212.859Z" fill="#003D57"/>
<path d="M99.7632 189.695L99.7632 177.005L101.905 177.005L101.905 186.473L101.491 186.473L108.727 177.005L110.455 177.005L110.455 189.695L108.313 189.695L108.313 180.209L108.709 180.209L101.473 189.695L99.7632 189.695ZM105.091 176.015C104.455 176.015 103.891 175.913 103.399 175.709C102.919 175.493 102.517 175.199 102.193 174.827C101.881 174.443 101.659 173.999 101.527 173.495L102.679 173.099C102.919 173.687 103.231 174.113 103.615 174.377C103.999 174.629 104.497 174.755 105.109 174.755C105.733 174.755 106.231 174.623 106.603 174.359C106.987 174.095 107.311 173.681 107.575 173.117L108.691 173.495C108.415 174.323 107.959 174.953 107.323 175.385C106.699 175.805 105.955 176.015 105.091 176.015Z" fill="#003D57"/>
<path d="M81.3789 189.695L81.3789 177.005L83.6829 177.005L83.6829 182.297L86.5809 182.297C87.4809 182.297 88.2549 182.441 88.9029 182.729C89.5509 183.005 90.0429 183.419 90.3789 183.971C90.7269 184.511 90.9009 185.183 90.9009 185.987C90.9009 186.791 90.7269 187.469 90.3789 188.021C90.0429 188.573 89.5509 188.993 88.9029 189.281C88.2549 189.557 87.4809 189.695 86.5809 189.695L81.3789 189.695ZM83.6829 187.859L86.2929 187.859C87.1089 187.859 87.7089 187.709 88.0929 187.409C88.4769 187.097 88.6689 186.623 88.6689 185.987C88.6689 185.351 88.4769 184.883 88.0929 184.583C87.7089 184.283 87.1089 184.133 86.2929 184.133L83.6829 184.133L83.6829 187.859ZM92.5209 189.695L92.5209 177.005L94.8249 177.005L94.8249 189.695L92.5209 189.695Z" fill="#003D57"/>
<path d="M65.2969 189.695L65.2969 177.005L67.6009 177.005L67.6009 182.297L74.1349 182.297L74.1349 177.005L76.4389 177.005L76.4389 189.695L74.1349 189.695L74.1349 184.223L67.6009 184.223L67.6009 189.695L65.2969 189.695Z" fill="#003D57"/>
<path d="M43.5767 189.695L45.7727 185.177C46.0367 184.637 46.3307 184.181 46.6547 183.809C46.9787 183.437 47.3447 183.143 47.7527 182.927C48.1727 182.699 48.6407 182.549 49.1567 182.477L48.2567 183.143L44.2427 177.005L46.7807 177.005L50.3807 182.693L49.9487 182.387L51.5327 182.387L51.5327 177.005L53.7467 177.005L53.7467 182.387L55.3487 182.387L54.8987 182.693L58.4987 177.005L61.0367 177.005L57.0227 183.143L56.1227 182.477C56.6387 182.549 57.1007 182.699 57.5087 182.927C57.9167 183.155 58.2827 183.455 58.6067 183.827C58.9427 184.199 59.2367 184.649 59.4887 185.177L61.6847 189.695L59.2007 189.695L57.4907 186.041C57.1907 185.417 56.8427 184.973 56.4467 184.709C56.0507 184.445 55.5527 184.313 54.9527 184.313L53.7467 184.313L53.7467 189.695L51.5327 189.695L51.5327 184.313L50.3267 184.313C49.7147 184.313 49.2047 184.451 48.7967 184.727C48.4007 184.991 48.0587 185.429 47.7707 186.041L46.0787 189.695L43.5767 189.695Z" fill="#003D57"/>
<path d="M31.9907 189.695L31.9907 177.005L40.4327 177.005L40.4327 178.841L34.2047 178.841L34.2047 182.333L40.0367 182.333L40.0367 184.169L34.2047 184.169L34.2047 187.859L40.4327 187.859L40.4327 189.695L31.9907 189.695Z" fill="#003D57"/>
<path d="M15.9087 189.695L15.9087 177.005L18.2127 177.005L18.2127 182.297L24.7467 182.297L24.7467 177.005L27.0507 177.005L27.0507 189.695L24.7467 189.695L24.7467 184.223L18.2127 184.223L18.2127 189.695L15.9087 189.695Z" fill="#003D57"/>
<path d="M7.43568 189.875C6.11568 189.875 4.98168 189.611 4.03368 189.083C3.09768 188.543 2.37768 187.787 1.87368 186.815C1.36968 185.831 1.11768 184.673 1.11768 183.341C1.11768 182.009 1.36968 180.857 1.87368 179.885C2.37768 178.913 3.09768 178.163 4.03368 177.635C4.98168 177.095 6.11568 176.825 7.43568 176.825C8.28768 176.825 9.09168 176.957 9.84768 177.221C10.6157 177.485 11.2457 177.863 11.7377 178.355L10.9817 180.191C10.4417 179.735 9.88968 179.405 9.32568 179.201C8.76168 178.985 8.15568 178.877 7.50768 178.877C6.22368 178.877 5.24568 179.267 4.57368 180.047C3.90168 180.815 3.56568 181.913 3.56568 183.341C3.56568 184.769 3.90168 185.873 4.57368 186.653C5.24568 187.433 6.22368 187.823 7.50768 187.823C8.15568 187.823 8.76168 187.721 9.32568 187.517C9.88968 187.301 10.4417 186.965 10.9817 186.509L11.7377 188.345C11.2457 188.825 10.6157 189.203 9.84768 189.479C9.09168 189.743 8.28768 189.875 7.43568 189.875Z" fill="#003D57"/>
<circle cx="60.1042" cy="108.649" r="48.8542" fill="white" stroke="#C1C1C1" stroke-width="1.5"/>
<line x1="60.75" y1="-3.34832e-08" x2="60.75" y2="60" stroke="#C1C1C1" stroke-width="1.5"/>
</svg>
