<svg preserveAspectRatio="none" width="100%" height="100%" overflow="visible" style="display: block;" viewBox="0 0 206 26" fill="none" xmlns="http://www.w3.org/2000/svg">
<g id="Logo White" clip-path="url(#clip0_203_1520)">
<path id="Vector" fill-rule="evenodd" clip-rule="evenodd" d="M35.4106 22.7733H141.168V26.0001H35.4106V22.7733Z" fill="var(--fill-0, #209C52)"/>
<path id="Vector_2" fill-rule="evenodd" clip-rule="evenodd" d="M206 22.7733H144.837V26.0001H206V22.7733Z" fill="var(--fill-0, #D72644)"/>
<g id="Group">
<path id="Vector_3" d="M54.6275 16.3829L54.8535 19.5351H58.2627V9.43659H46.462V12.457H53.5178L53.5092 12.5601C53.4005 14.0188 51.5015 16.1881 46.7194 16.1881C40.7047 16.1881 39.1945 12.8983 39.1945 10.1387C39.1945 6.25286 41.9602 4.03485 46.7194 4.03485C51.9305 4.03485 53.2061 6.43053 53.4949 7.82037H58.2598C57.9052 2.93444 53.8124 0.246466 46.7223 0.246466C39.0172 0.246466 34.7729 3.71963 34.7729 10.0298C34.7729 16.3399 38.8342 19.8131 45.9129 19.8131C49.5966 19.8131 52.5597 18.684 54.4845 16.552L54.6304 16.3886L54.6275 16.3829Z" fill="var(--fill-0, white)"/>
<path id="Vector_4" d="M98.8471 14.5518C98.8471 16.0735 100.412 16.6523 105.013 16.6523C109.615 16.6523 110.193 16.3629 110.193 15.2539C110.193 14.1449 109.518 14.0962 104.533 13.7809C98.2951 13.4199 95.2349 12.9356 95.2349 9.50826C95.2349 5.79152 99.5707 5.0923 104.63 5.0923C109.979 5.0923 113.857 5.79152 113.857 9.70313H109.713C109.713 8.51962 108.22 8.23019 104.39 8.23019C100.56 8.23019 99.3791 8.51962 99.3791 9.33919C99.3791 10.2333 100.126 10.3794 105.016 10.7376C110.556 11.1474 114.34 11.2936 114.34 15.0819C114.34 19.0881 110.728 19.7902 105.257 19.7902C99.7852 19.7902 94.7315 19.091 94.7315 14.5518H98.85H98.8471Z" fill="var(--fill-0, white)"/>
<path id="Vector_5" d="M119.817 14.5518C119.817 16.0735 121.382 16.6523 125.984 16.6523C130.585 16.6523 131.163 16.3629 131.163 15.2539C131.163 14.1449 130.488 14.0962 125.503 13.7809C119.265 13.4199 116.205 12.9356 116.205 9.50826C116.205 5.79152 120.541 5.0923 125.6 5.0923C130.949 5.0923 134.827 5.79152 134.827 9.70313H130.686C130.686 8.51962 129.193 8.23019 125.363 8.23019C121.533 8.23019 120.352 8.51962 120.352 9.33919C120.352 10.2333 121.099 10.3794 125.989 10.7376C131.529 11.1474 135.313 11.2936 135.313 15.0819C135.313 19.0881 131.701 19.7902 126.23 19.7902C120.758 19.7902 115.704 19.091 115.704 14.5518H119.823H119.817Z" fill="var(--fill-0, white)"/>
<path id="Vector_6" d="M141.168 19.5495H137.049V5.33306H141.168V19.5495ZM141.168 3.8372H137.049V0.240812H141.168V3.8372Z" fill="var(--fill-0, white)"/>
<path id="Vector_7" d="M152.499 5.33297H158.497V8.7832H152.499V19.5466H148.355V8.78607H144.834V5.33583H148.355V4.27268C148.355 1.37838 150.091 0 154.233 0C155.654 0 156.401 0 158.497 0.240714V3.16081C157.556 3.08917 156.595 3.04045 155.534 3.04045C153.171 3.04045 152.568 3.54767 152.499 5.33297Z" fill="var(--fill-0, white)"/>
<path id="Vector_8" fill-rule="evenodd" clip-rule="evenodd" d="M160.242 0.240812H164.36V19.5495H160.242V0.240812Z" fill="var(--fill-0, white)"/>
<path id="Vector_9" d="M170.464 10.7892H181.232C180.534 8.78616 178.509 8.23022 175.909 8.23022C174.785 8.23022 173.796 8.31906 172.969 8.55118C171.725 8.90365 170.855 9.58281 170.464 10.7892ZM181.303 14.4573H185.399C184.461 18.0766 180.943 19.7902 175.692 19.7902C170.441 19.7902 166.105 17.6668 166.105 12.4513C166.105 7.23585 170.175 5.08948 175.932 5.08948C181.329 5.08948 185.639 6.94642 185.639 13.4142H170.318C170.775 15.6838 172.943 16.4317 175.689 16.4317C178.435 16.4317 180.265 15.9016 181.3 14.4544" fill="var(--fill-0, white)"/>
<path id="Vector_10" d="M192.489 12.4542L184.515 5.33312H190.055L195.258 10.0414L200.46 5.33312H206L198.003 12.4542L206 19.5496H200.46L195.258 14.8442L190.055 19.5496H184.515L192.489 12.4542Z" fill="var(--fill-0, white)"/>
<path id="Vector_11" d="M76.8045 6.12107C79.1956 5.45911 81.5694 5.0923 84.0291 5.0923C89.9552 5.0923 93.3272 6.99796 93.3758 12.3825V19.5495H89.2316V17.7871C86.7261 19.0193 83.9576 19.7902 80.6084 19.7902C76.6329 19.7902 74.1532 18.5121 74.1532 15.2997C74.1532 11.6059 78.2003 10.4482 82.7049 10.4482C85.136 10.4482 87.3782 10.8351 89.2316 11.4626C89.2316 8.76033 85.7652 8.54254 83.8375 8.54254C81.9098 8.54254 79.719 8.48236 76.8045 9.35065V6.11821V6.12107ZM89.2316 14.0245C87.7872 13.566 85.8367 13.1534 83.2111 13.1534C80.128 13.1534 78.2718 13.6864 78.2718 15.1335C78.2718 16.5807 79.6446 16.7497 81.7897 16.7497C83.9347 16.7497 87.1123 16.0505 89.2316 15.1335V14.0217V14.0245Z" fill="var(--fill-0, white)"/>
<path id="Vector_12" d="M75.0713 8.78902C74.1132 8.59703 73.258 8.54544 72.3314 8.54544C70.0204 8.54544 67.3691 9.07559 64.8637 11.03V19.5495H60.7452V5.33306H64.8637V7.74593C66.983 5.84028 69.294 5.08948 71.9424 5.08948C73.1408 5.08948 74.2648 5.32159 75.0713 5.57664V8.78616V8.78902Z" fill="var(--fill-0, white)"/>
<path id="Vector_13" d="M27.8228 1.37843C27.0907 0.644829 26.1182 0.243639 25.08 0.243639H3.87541C2.84006 0.243639 1.86477 0.647695 1.13259 1.37843C0.403271 2.10917 0 3.08063 0 4.11799V22.1171C0 23.1373 0.414711 24.1374 1.13545 24.8567C1.86763 25.5903 2.84292 25.9915 3.87827 25.9915H25.0829C26.1182 25.9915 27.0935 25.5874 27.8257 24.8567C28.5464 24.1374 28.9612 23.1373 28.9612 22.1171V4.11799C28.9612 3.08063 28.5579 2.10917 27.8257 1.37557L27.8228 1.37843ZM27.0706 12.7092C26.1268 19.6584 21.4849 24.0084 14.921 24.0686H14.8667C14.575 24.0715 13.8142 24.0801 13.6254 24.0772C7.17022 24.017 1.91625 18.77 1.91625 12.3768C1.91625 9.67734 3.04598 7.00943 5.01658 5.05219C6.89279 3.18952 9.3782 2.16362 12.0238 2.16362C12.0466 2.16362 12.0695 2.16362 12.0924 2.16362C14.5778 2.18082 16.7458 3.01472 18.2015 4.51345C19.5744 5.92621 20.2694 7.85193 20.2179 10.0814C20.1264 14.0045 17.4922 16.916 13.9572 17.0048C11.9551 17.0564 10.7596 16.6495 9.53264 15.5032C8.50301 14.5403 8.00822 13.3282 8.06256 11.8925C8.15122 9.52833 10.1333 8.07831 11.9952 8.04393C12.018 8.04393 12.0438 8.04393 12.0667 8.04393C13.5825 8.04393 14.8152 8.95234 15.0068 10.2247C15.1098 10.8981 14.9239 11.6432 14.5378 12.1217C14.2518 12.4742 13.8771 12.6691 13.4252 12.6949C13.2164 12.7092 12.6873 12.7035 12.2783 12.3911C12.1811 12.3166 12.1553 12.265 12.1782 12.2278C12.1868 12.2249 12.2211 12.2278 12.2469 12.2278C12.2726 12.2278 12.3012 12.2278 12.3327 12.2278C12.9104 12.2048 13.1278 11.7005 13.1306 11.3681C13.1363 11.0213 13.0248 10.729 12.8132 10.5256C12.5758 10.2963 12.2354 10.1846 11.815 10.2018C11.426 10.219 10.9112 10.4654 10.6738 10.901C10.0961 11.9641 10.814 12.99 11.3288 13.4285C11.9866 13.9873 12.9218 14.1363 13.5196 14.0962C14.3576 14.0389 15.0812 13.6606 15.6103 13.0015C16.2538 12.202 16.5541 11.0586 16.3968 10.0155C16.0937 8.01814 14.2375 6.60824 11.9694 6.64262C9.45256 6.69134 6.77839 8.64858 6.65826 11.8438C6.58676 13.7036 7.23314 15.2825 8.57165 16.5348C10.0818 17.9476 11.5976 18.4749 13.9886 18.4147C18.2301 18.3087 21.5106 14.7409 21.6193 10.1215C21.7137 6.18699 19.7832 3.05484 16.4226 1.61915H25.0772C25.7493 1.61915 26.3785 1.87992 26.8504 2.35275C27.3252 2.82559 27.5855 3.45603 27.5855 4.12659V6.43057C27.5197 8.80619 27.3566 10.8179 27.0821 12.5745L27.0621 12.7178H27.0649L27.0706 12.7092ZM1.36712 8.07831V4.11799C1.36712 3.44743 1.62738 2.81699 2.10216 2.34416C2.56835 1.87706 3.21473 1.61055 3.87541 1.61055H7.69361C4.85641 2.78833 2.55405 5.14103 1.36426 8.07831H1.36712ZM9.02069 24.6245H3.87541C3.21473 24.6245 2.56835 24.358 2.10216 23.8909C1.62738 23.4181 1.36712 22.7877 1.36712 22.1171V17.0277C2.69991 20.5238 5.49135 23.2949 9.01783 24.6245H9.02069ZM27.5912 16.5864V22.1171C27.5912 22.7877 27.3309 23.4152 26.8561 23.8909C26.3814 24.3638 25.7521 24.6245 25.0829 24.6245H19.7603C23.4383 23.292 26.1812 20.4751 27.5912 16.5864Z" fill="var(--fill-0, white)"/>
</g>
</g>
<defs>
<clipPath id="clip0_203_1520">
<rect width="206" height="26" fill="white"/>
</clipPath>
</defs>
</svg>
