<svg width="952" height="886" viewBox="0 0 952 886" fill="none" xmlns="http://www.w3.org/2000/svg">
<g clip-path="url(#clip0_211_1605)">
<path d="M766.362 468.977L-180.793 965.108C-187.619 968.684 -195.845 963.945 -196.176 956.246L-212.287 581.664L-57.7278 114.832L754.992 298.649C763.618 300.6 769.743 308.264 769.743 317.108V463.389C769.743 465.735 768.44 467.888 766.362 468.977Z" stroke="#F2E6D4" stroke-width="2.10285"/>
<path d="M765.537 306.19C765.537 306.19 768.691 313.55 762.382 317.756C756.443 321.716 -71.5002 695.67 -168.373 739.42C-174.629 742.245 -181.141 743.583 -188.005 743.583H-208.082" stroke="#F2E6D4" stroke-width="2.10285"/>
<path d="M353.379 75.6221L353.379 321.962" stroke="#F2E6D4" stroke-width="2.10285"/>
<path d="M367.095 307.601L353.255 323.433L341.397 305.747" stroke="#F2E6D4" stroke-width="2.10285"/>
<circle cx="353.379" cy="62.3178" r="14.2522" stroke="#D9D9D9" stroke-width="2.10285"/>
<path opacity="0.5" d="M769.743 0V785.972" stroke="url(#paint0_linear_211_1605)" stroke-width="2.10285"/>
<path opacity="0.5" d="M923.922 385.374L228.552 751.725" stroke="url(#paint1_linear_211_1605)" stroke-width="2.10285"/>
<path opacity="0.5" d="M923.922 243.264L209.037 569.903" stroke="url(#paint2_linear_211_1605)" stroke-width="2.10285"/>
<path opacity="0.5" d="M951.958 346.718L186.591 167.927" stroke="url(#paint3_linear_211_1605)" stroke-width="2.10285"/>
<path opacity="0.8" d="M527.189 80.7808L535.063 62.9907H537.056L544.929 80.7808H542.532L540.362 75.734L541.447 76.3396H530.647L531.732 75.734L529.587 80.7808H527.189ZM536.021 65.6403L532.085 74.9517L531.479 74.4218H540.614L540.034 74.9517L536.072 65.6403H536.021Z" fill="#F2E6D4"/>
<path opacity="0.8" d="M504.638 80.7808V62.9907H506.985V70.7628H517.281V62.9907H519.627V80.7808H517.281V72.7564H506.985V80.7808H504.638Z" fill="#F2E6D4"/>
<path opacity="0.8" d="M487.719 81.0075C486.457 81.0075 485.322 80.7972 484.312 80.3766C483.303 79.9561 482.437 79.342 481.713 78.5345C480.99 77.7271 480.435 76.7682 480.048 75.6578C479.661 74.5307 479.467 73.269 479.467 71.8727C479.467 70.4764 479.661 69.2231 480.048 68.1128C480.435 66.9857 480.981 66.0268 481.688 65.2361C482.411 64.4286 483.278 63.8146 484.287 63.394C485.313 62.9735 486.457 62.7632 487.719 62.7632C488.981 62.7632 490.116 62.9735 491.125 63.394C492.135 63.8146 493.001 64.4202 493.725 65.2109C494.448 66.0016 494.995 66.9605 495.365 68.0876C495.752 69.1979 495.945 70.4512 495.945 71.8475C495.945 73.2438 495.752 74.5055 495.365 75.6326C494.978 76.7597 494.423 77.7271 493.699 78.5345C492.993 79.342 492.135 79.9561 491.125 80.3766C490.116 80.7972 488.981 81.0075 487.719 81.0075ZM487.719 78.9383C488.93 78.9383 489.965 78.6607 490.823 78.1056C491.681 77.5504 492.337 76.7429 492.791 75.6831C493.262 74.6232 493.497 73.3531 493.497 71.8727C493.497 70.3755 493.27 69.1054 492.816 68.0624C492.362 67.0025 491.706 66.2034 490.848 65.6651C489.99 65.11 488.947 64.8324 487.719 64.8324C486.508 64.8324 485.465 65.11 484.59 65.6651C483.732 66.2034 483.076 67.0025 482.622 68.0624C482.167 69.1054 481.94 70.3755 481.94 71.8727C481.94 73.3531 482.167 74.6232 482.622 75.6831C483.076 76.7429 483.732 77.5504 484.59 78.1056C485.465 78.6607 486.508 78.9383 487.719 78.9383Z" fill="#F2E6D4"/>
<path opacity="0.8" d="M459.256 80.7808V62.9907H466.448C467.726 62.9907 468.811 63.201 469.703 63.6216C470.594 64.0421 471.267 64.6562 471.722 65.4637C472.193 66.2543 472.428 67.2217 472.428 68.3656C472.428 69.5096 472.193 70.4853 471.722 71.2928C471.267 72.1003 470.594 72.7143 469.703 73.1349C468.811 73.5554 467.726 73.7657 466.448 73.7657H461.603V80.7808H459.256ZM461.603 71.8732H466.145C467.457 71.8732 468.441 71.5788 469.097 70.99C469.77 70.3843 470.107 69.5096 470.107 68.3656C470.107 67.2217 469.77 66.3637 469.097 65.7917C468.441 65.2029 467.457 64.9085 466.145 64.9085H461.603V71.8732Z" fill="#F2E6D4"/>
<path opacity="0.8" d="M442.337 81.0075C441.075 81.0075 439.94 80.7972 438.93 80.3766C437.921 79.9561 437.055 79.342 436.331 78.5345C435.608 77.7271 435.053 76.7682 434.666 75.6578C434.279 74.5307 434.085 73.269 434.085 71.8727C434.085 70.4764 434.279 69.2231 434.666 68.1128C435.053 66.9857 435.6 66.0268 436.306 65.2361C437.029 64.4286 437.896 63.8146 438.905 63.394C439.931 62.9735 441.075 62.7632 442.337 62.7632C443.599 62.7632 444.734 62.9735 445.744 63.394C446.753 63.8146 447.619 64.4202 448.343 65.2109C449.066 66.0016 449.613 66.9605 449.983 68.0876C450.37 69.1979 450.563 70.4512 450.563 71.8475C450.563 73.2438 450.37 74.5055 449.983 75.6326C449.596 76.7597 449.041 77.7271 448.318 78.5345C447.611 79.342 446.753 79.9561 445.744 80.3766C444.734 80.7972 443.599 81.0075 442.337 81.0075ZM442.337 78.9383C443.548 78.9383 444.583 78.6607 445.441 78.1056C446.299 77.5504 446.955 76.7429 447.409 75.6831C447.88 74.6232 448.116 73.3531 448.116 71.8727C448.116 70.3755 447.889 69.1054 447.434 68.0624C446.98 67.0025 446.324 66.2034 445.466 65.6651C444.608 65.11 443.565 64.8324 442.337 64.8324C441.126 64.8324 440.083 65.11 439.208 65.6651C438.35 66.2034 437.694 67.0025 437.24 68.0624C436.786 69.1054 436.558 70.3755 436.558 71.8727C436.558 73.3531 436.786 74.6232 437.24 75.6831C437.694 76.7429 438.35 77.5504 439.208 78.1056C440.083 78.6607 441.126 78.9383 442.337 78.9383Z" fill="#F2E6D4"/>
<path opacity="0.8" d="M419.742 80.7808V64.9842H413.358V62.9907H428.473V64.9842H422.089V80.7808H419.742Z" fill="#F2E6D4"/>
<path opacity="0.8" d="M401.421 81.0075C399.654 81.0075 398.14 80.6374 396.878 79.8972C395.617 79.157 394.641 78.1056 393.951 76.7429C393.278 75.3635 392.942 73.7401 392.942 71.8727C392.942 70.0054 393.278 68.3904 393.951 67.0278C394.641 65.6651 395.617 64.6137 396.878 63.8735C398.14 63.1333 399.654 62.7632 401.421 62.7632C402.632 62.7632 403.759 62.9566 404.802 63.3436C405.862 63.7137 406.745 64.2688 407.452 65.009L406.594 66.8764C405.82 66.1866 405.021 65.6819 404.196 65.3623C403.372 65.0427 402.464 64.8829 401.471 64.8829C399.52 64.8829 398.022 65.4885 396.979 66.6997C395.953 67.911 395.44 69.6353 395.44 71.8727C395.44 74.1102 395.953 75.8429 396.979 77.071C398.022 78.2822 399.52 78.8878 401.471 78.8878C402.464 78.8878 403.372 78.728 404.196 78.4084C405.021 78.0887 405.82 77.5841 406.594 76.8943L407.452 78.7617C406.745 79.485 405.862 80.0402 404.802 80.4271C403.759 80.814 402.632 81.0075 401.421 81.0075Z" fill="#F2E6D4"/>
<path opacity="0.8" d="M647.237 46.7808L650.341 41.0527C650.728 40.3125 651.165 39.7741 651.653 39.4377C652.158 39.1012 652.747 38.933 653.42 38.933H654.101L653.975 39.2863C652.73 39.2863 651.662 39.0844 650.77 38.6806C649.878 38.2769 649.197 37.6965 648.726 36.9395C648.255 36.1656 648.02 35.2404 648.02 34.1637C648.02 32.5151 648.533 31.245 649.559 30.3534C650.585 29.4449 652.057 28.9907 653.975 28.9907H661.192V46.7808H658.845V39.362H656.044C655.539 39.362 655.094 39.4124 654.707 39.5134C654.337 39.5975 654 39.7657 653.697 40.0181C653.411 40.2704 653.142 40.6321 652.89 41.1031L649.811 46.7808H647.237ZM654.353 37.5451H658.845V30.9085H654.353C653.024 30.9085 652.015 31.1861 651.325 31.7412C650.652 32.2964 650.316 33.1207 650.316 34.2142C650.316 35.3077 650.652 36.1404 651.325 36.7124C652.015 37.2675 653.024 37.5451 654.353 37.5451Z" fill="#F2E6D4"/>
<path opacity="0.8" d="M623.128 46.7808L631.001 28.9907H632.995L640.868 46.7808H638.471L636.301 41.734L637.386 42.3396H626.586L627.671 41.734L625.526 46.7808H623.128ZM631.96 31.6403L628.024 40.9517L627.418 40.4218H636.553L635.973 40.9517L632.011 31.6403H631.96Z" fill="#F2E6D4"/>
<path opacity="0.8" d="M600.577 46.7808V28.9907H602.924V36.7629H613.219V28.9907H615.566V46.7808H613.219V38.7563H602.924V46.7808H600.577Z" fill="#F2E6D4"/>
<path opacity="0.8" d="M576.26 46.7808V28.9907H578.607V36.7629H588.902V28.9907H591.249V46.7808H588.902V38.7563H578.607V46.7808H576.26Z" fill="#F2E6D4"/>
<path opacity="0.8" d="M559.34 47.0075C558.079 47.0075 556.943 46.7972 555.934 46.3766C554.924 45.9561 554.058 45.342 553.335 44.5345C552.611 43.7271 552.056 42.7682 551.669 41.6579C551.282 40.5307 551.089 39.269 551.089 37.8727C551.089 36.4764 551.282 35.2231 551.669 34.1128C552.056 32.9857 552.603 32.0268 553.309 31.2361C554.033 30.4286 554.899 29.8146 555.909 29.394C556.935 28.9735 558.079 28.7632 559.34 28.7632C560.602 28.7632 561.738 28.9735 562.747 29.394C563.756 29.8146 564.623 30.4202 565.346 31.2109C566.07 32.0016 566.616 32.9605 566.986 34.0876C567.373 35.1979 567.567 36.4512 567.567 37.8475C567.567 39.2438 567.373 40.5055 566.986 41.6326C566.599 42.7597 566.044 43.7271 565.321 44.5345C564.614 45.342 563.756 45.9561 562.747 46.3766C561.738 46.7972 560.602 47.0075 559.34 47.0075ZM559.34 44.9383C560.552 44.9383 561.586 44.6607 562.444 44.1056C563.302 43.5504 563.958 42.7429 564.413 41.6831C564.884 40.6232 565.119 39.3531 565.119 37.8727C565.119 36.3755 564.892 35.1054 564.438 34.0624C563.984 33.0025 563.327 32.2034 562.469 31.6651C561.612 31.11 560.569 30.8324 559.34 30.8324C558.129 30.8324 557.086 31.11 556.211 31.6651C555.353 32.2034 554.697 33.0025 554.243 34.0624C553.789 35.1054 553.562 36.3755 553.562 37.8727C553.562 39.3531 553.789 40.6232 554.243 41.6831C554.697 42.7429 555.353 43.5504 556.211 44.1056C557.086 44.6607 558.129 44.9383 559.34 44.9383Z" fill="#F2E6D4"/>
<path opacity="0.8" d="M536.26 47.0075C535.267 47.0075 534.342 46.9234 533.484 46.7552C532.643 46.5701 531.877 46.3094 531.187 45.9729C530.498 45.6196 529.892 45.2159 529.371 44.7617L530.203 42.9448C530.977 43.6177 531.844 44.1224 532.802 44.4588C533.761 44.7953 534.863 44.9635 536.108 44.9635C537.689 44.9635 538.85 44.6944 539.59 44.156C540.331 43.6177 540.701 42.8102 540.701 41.7336C540.701 40.7074 540.381 39.9503 539.742 39.4625C539.103 38.9746 538.135 38.7307 536.84 38.7307H532.5V36.8129H536.411C537.689 36.8129 538.648 36.569 539.288 36.0811C539.944 35.5764 540.272 34.8362 540.272 33.8605C540.272 32.9184 539.927 32.1698 539.237 31.6146C538.564 31.0595 537.53 30.7819 536.133 30.7819C535.09 30.7819 534.098 30.9501 533.156 31.2866C532.214 31.6062 531.356 32.0941 530.582 32.7502L529.774 30.9586C530.313 30.4707 530.927 30.067 531.616 29.7473C532.306 29.4277 533.055 29.1838 533.862 29.0155C534.67 28.8473 535.494 28.7632 536.335 28.7632C537.732 28.7632 538.892 28.9651 539.818 29.3688C540.743 29.7726 541.441 30.3445 541.912 31.0847C542.383 31.8081 542.619 32.6577 542.619 33.6334C542.619 34.7269 542.291 35.6437 541.634 36.3839C540.995 37.1241 540.129 37.6204 539.035 37.8727V37.4942C540.28 37.6456 541.256 38.1082 541.962 38.8821C542.686 39.6391 543.048 40.6317 543.048 41.8597C543.048 42.9196 542.804 43.8364 542.316 44.6102C541.828 45.3841 541.079 45.9813 540.07 46.4019C539.077 46.8056 537.807 47.0075 536.26 47.0075Z" fill="#F2E6D4"/>
<path opacity="0.8" d="M510.75 46.7808V28.9907H522.105V30.9085H513.021V36.7881H521.575V38.7059H513.021V44.863H522.105V46.7808H510.75Z" fill="#F2E6D4"/>
<path opacity="0.8" d="M496.522 47.0075C494.755 47.0075 493.241 46.6374 491.979 45.8972C490.718 45.157 489.742 44.1056 489.052 42.7429C488.379 41.3635 488.043 39.7401 488.043 37.8727C488.043 36.0054 488.379 34.3904 489.052 33.0278C489.742 31.6651 490.718 30.6137 491.979 29.8735C493.241 29.1333 494.755 28.7632 496.522 28.7632C497.733 28.7632 498.86 28.9566 499.903 29.3436C500.963 29.7137 501.846 30.2688 502.553 31.009L501.695 32.8764C500.921 32.1866 500.122 31.6819 499.297 31.3623C498.473 31.0427 497.565 30.8829 496.572 30.8829C494.621 30.8829 493.123 31.4885 492.08 32.6997C491.054 33.911 490.541 35.6353 490.541 37.8727C490.541 40.1102 491.054 41.8429 492.08 43.071C493.123 44.2822 494.621 44.8878 496.572 44.8878C497.565 44.8878 498.473 44.728 499.297 44.4084C500.122 44.0887 500.921 43.5841 501.695 42.8943L502.553 44.7617C501.846 45.485 500.963 46.0402 499.903 46.4271C498.86 46.814 497.733 47.0075 496.522 47.0075Z" fill="#F2E6D4"/>
<path opacity="0.8" d="M464.948 46.7808V28.9907H467.118V43.677H466.563L477.591 28.9907H479.382V46.7808H477.187V32.0693H477.742L466.715 46.7808H464.948Z" fill="#F2E6D4"/>
<path opacity="0.8" d="M438.291 46.7808V28.9907H440.259L447.35 42.2891H446.568L453.633 28.9907H455.576V46.7808H453.457V32.2459H454.012L447.678 44.0555H446.215L439.805 32.2207H440.411V46.7808H438.291Z" fill="#F2E6D4"/>
<path opacity="0.8" d="M418.408 46.7808V28.9907H429.764V30.9085H420.679V36.7881H429.234V38.7059H420.679V44.863H429.764V46.7808H418.408Z" fill="#F2E6D4"/>
<path opacity="0.8" d="M391.857 50.7931V44.863H393.598C394.187 44.1396 394.666 43.2564 395.036 42.2134C395.407 41.1536 395.684 39.9087 395.869 38.4788C396.054 37.0488 396.147 35.417 396.147 33.5833V28.9907H408.133V44.863H410.656V50.7931H408.537V46.7808H393.977V50.7931H391.857ZM396.021 44.863H405.761V30.9085H398.317V33.76C398.317 35.5264 398.233 37.0993 398.065 38.4788C397.913 39.8414 397.669 41.0527 397.333 42.1125C396.996 43.1555 396.559 44.0724 396.021 44.863Z" fill="#F2E6D4"/>
<path opacity="0.6" d="M615.323 154.054C614.499 154.054 613.758 153.894 613.102 153.575C612.463 153.255 611.95 152.818 611.563 152.263C611.193 151.707 611.008 151.085 611.008 150.395C611.008 149.487 611.235 148.772 611.689 148.25C612.143 147.729 612.909 147.367 613.985 147.165C615.062 146.947 616.543 146.837 618.427 146.837H619.512V147.973H618.452C617.325 147.973 616.374 148.006 615.6 148.074C614.843 148.141 614.246 148.267 613.809 148.452C613.371 148.621 613.06 148.856 612.875 149.159C612.707 149.462 612.623 149.832 612.623 150.269C612.623 151.026 612.884 151.64 613.405 152.111C613.927 152.582 614.633 152.818 615.525 152.818C616.248 152.818 616.879 152.65 617.417 152.313C617.972 151.96 618.41 151.48 618.729 150.875C619.049 150.269 619.209 149.579 619.209 148.806V145.929C619.209 144.802 618.982 143.986 618.528 143.481C618.073 142.96 617.35 142.699 616.357 142.699C615.617 142.699 614.902 142.808 614.213 143.027C613.54 143.246 612.841 143.591 612.118 144.062L611.512 142.876C611.95 142.573 612.429 142.312 612.951 142.093C613.489 141.875 614.044 141.706 614.616 141.589C615.205 141.454 615.777 141.387 616.332 141.387C617.325 141.387 618.141 141.555 618.78 141.891C619.436 142.228 619.915 142.733 620.218 143.405C620.538 144.078 620.698 144.945 620.698 146.005V153.852H619.234V150.9H619.486C619.335 151.556 619.066 152.12 618.679 152.591C618.292 153.062 617.813 153.423 617.241 153.676C616.669 153.928 616.029 154.054 615.323 154.054Z" fill="#F2E6D4"/>
<path opacity="0.6" d="M595.462 157.133V152.591H596.698C597.119 151.985 597.455 151.329 597.708 150.622C597.977 149.899 598.17 149.1 598.288 148.225C598.406 147.334 598.465 146.358 598.465 145.298V141.614H606.742V152.591H608.634V157.133H607.297V153.852H596.799V157.133H595.462ZM598.288 152.591H605.253V142.875H599.878V145.449C599.878 146.812 599.735 148.124 599.449 149.386C599.18 150.631 598.793 151.699 598.288 152.591Z" fill="#F2E6D4"/>
<path opacity="0.6" d="M587.773 154.054C586.629 154.054 585.637 153.794 584.796 153.272C583.954 152.751 583.298 152.019 582.827 151.077C582.373 150.135 582.146 149.016 582.146 147.72C582.146 146.442 582.373 145.332 582.827 144.39C583.298 143.431 583.954 142.69 584.796 142.169C585.637 141.647 586.629 141.387 587.773 141.387C588.934 141.387 589.935 141.647 590.776 142.169C591.617 142.69 592.265 143.431 592.719 144.39C593.19 145.332 593.426 146.442 593.426 147.72C593.426 149.016 593.19 150.135 592.719 151.077C592.265 152.019 591.617 152.751 590.776 153.272C589.935 153.794 588.934 154.054 587.773 154.054ZM587.773 152.767C589.035 152.767 590.027 152.33 590.751 151.455C591.491 150.58 591.861 149.335 591.861 147.72C591.861 146.122 591.491 144.886 590.751 144.011C590.027 143.136 589.035 142.699 587.773 142.699C586.545 142.699 585.561 143.136 584.821 144.011C584.081 144.886 583.711 146.122 583.711 147.72C583.711 149.335 584.081 150.58 584.821 151.455C585.561 152.33 586.545 152.767 587.773 152.767Z" fill="#F2E6D4"/>
<path opacity="0.6" d="M572.184 153.852V141.614H580.46V142.901H573.723V153.852H572.184Z" fill="#F2E6D4"/>
<path opacity="0.6" d="M551.51 153.852L553.428 150.521C553.747 149.966 554.151 149.52 554.639 149.184C555.127 148.831 555.606 148.654 556.077 148.654H556.304V148.831C555.429 148.831 554.672 148.688 554.033 148.402C553.394 148.116 552.898 147.704 552.544 147.165C552.208 146.627 552.04 145.979 552.04 145.222C552.04 144.146 552.401 143.279 553.125 142.623C553.848 141.95 554.942 141.614 556.405 141.614H561.603V153.852H560.115V148.982H558.121C557.364 148.982 556.733 149.167 556.229 149.537C555.724 149.907 555.312 150.362 554.992 150.9L553.301 153.852H551.51ZM556.683 147.796H560.115V142.775H556.683C555.606 142.775 554.815 142.993 554.311 143.431C553.806 143.868 553.554 144.482 553.554 145.273C553.554 146.063 553.806 146.686 554.311 147.14C554.815 147.577 555.606 147.796 556.683 147.796Z" fill="#F2E6D4"/>
<path opacity="0.6" d="M536.156 153.852V141.614H537.443L542.212 150.244L546.981 141.614H548.243V153.852H546.88V143.38H547.41L542.616 151.884H541.783L536.988 143.38H537.544V153.852H536.156Z" fill="#F2E6D4"/>
<path opacity="0.6" d="M527.976 154.054C526.714 154.054 525.629 153.802 524.721 153.297C523.812 152.793 523.114 152.069 522.626 151.127C522.138 150.185 521.895 149.066 521.895 147.771C521.895 146.492 522.138 145.382 522.626 144.44C523.114 143.481 523.787 142.733 524.645 142.194C525.52 141.656 526.521 141.387 527.648 141.387C528.741 141.387 529.667 141.631 530.424 142.119C531.198 142.59 531.786 143.271 532.19 144.162C532.611 145.037 532.821 146.097 532.821 147.342V148.049H523.005V146.913H531.862L531.458 147.241C531.458 145.794 531.139 144.667 530.499 143.86C529.86 143.035 528.918 142.623 527.673 142.623C526.748 142.623 525.966 142.842 525.326 143.279C524.687 143.7 524.208 144.289 523.888 145.046C523.568 145.786 523.409 146.644 523.409 147.62V147.746C523.409 148.822 523.577 149.739 523.913 150.496C524.267 151.236 524.788 151.8 525.478 152.187C526.168 152.574 526.983 152.767 527.926 152.767C528.683 152.767 529.389 152.65 530.045 152.414C530.718 152.179 531.374 151.783 532.013 151.228L532.619 152.389C532.081 152.894 531.391 153.297 530.55 153.6C529.709 153.903 528.851 154.054 527.976 154.054Z" fill="#F2E6D4"/>
<path opacity="0.6" d="M507.94 158.395V141.614H509.479V144.667H509.202C509.488 143.658 510.034 142.859 510.842 142.27C511.649 141.681 512.625 141.387 513.769 141.387C514.863 141.387 515.813 141.647 516.62 142.169C517.445 142.69 518.076 143.422 518.513 144.364C518.967 145.306 519.194 146.425 519.194 147.72C519.194 149.016 518.967 150.143 518.513 151.102C518.076 152.044 517.453 152.776 516.646 153.297C515.838 153.802 514.879 154.054 513.769 154.054C512.625 154.054 511.649 153.76 510.842 153.171C510.034 152.582 509.488 151.8 509.202 150.824H509.479V158.395H507.94ZM513.542 152.767C514.787 152.767 515.779 152.33 516.52 151.455C517.26 150.58 517.63 149.335 517.63 147.72C517.63 146.122 517.26 144.886 516.52 144.011C515.779 143.136 514.787 142.699 513.542 142.699C512.297 142.699 511.304 143.136 510.564 144.011C509.824 144.886 509.454 146.122 509.454 147.72C509.454 149.335 509.824 150.58 510.564 151.455C511.304 152.33 512.297 152.767 513.542 152.767Z" fill="#F2E6D4"/>
<path opacity="0.6" d="M494.386 153.852V141.614H500.064C500.989 141.614 501.755 141.74 502.36 141.992C502.966 142.228 503.42 142.581 503.723 143.052C504.026 143.523 504.177 144.12 504.177 144.844C504.177 145.634 503.9 146.299 503.344 146.837C502.806 147.359 502.091 147.67 501.199 147.771V147.443C501.872 147.46 502.461 147.603 502.966 147.872C503.487 148.124 503.883 148.477 504.152 148.932C504.438 149.386 504.581 149.907 504.581 150.496C504.581 151.522 504.202 152.338 503.445 152.944C502.688 153.55 501.628 153.852 500.266 153.852H494.386ZM495.875 152.717H500.266C501.174 152.717 501.864 152.523 502.335 152.136C502.823 151.733 503.067 151.169 503.067 150.446C503.067 149.706 502.823 149.15 502.335 148.78C501.864 148.393 501.174 148.2 500.266 148.2H495.875V152.717ZM495.875 147.064H500.064C500.888 147.064 501.527 146.871 501.982 146.484C502.453 146.097 502.688 145.567 502.688 144.894C502.688 144.204 502.453 143.675 501.982 143.304C501.527 142.934 500.888 142.749 500.064 142.749H495.875V147.064Z" fill="#F2E6D4"/>
<path opacity="0.6" d="M479.873 154.054C478.612 154.054 477.527 153.802 476.618 153.297C475.71 152.793 475.012 152.069 474.524 151.127C474.036 150.185 473.792 149.066 473.792 147.771C473.792 146.492 474.036 145.382 474.524 144.44C475.012 143.481 475.685 142.733 476.543 142.194C477.417 141.656 478.418 141.387 479.545 141.387C480.639 141.387 481.564 141.631 482.321 142.119C483.095 142.59 483.684 143.271 484.088 144.162C484.508 145.037 484.718 146.097 484.718 147.342V148.049H474.902V146.913H483.759L483.356 147.241C483.356 145.794 483.036 144.667 482.397 143.86C481.758 143.035 480.816 142.623 479.571 142.623C478.645 142.623 477.863 142.842 477.224 143.279C476.585 143.7 476.105 144.289 475.785 145.046C475.466 145.786 475.306 146.644 475.306 147.62V147.746C475.306 148.822 475.474 149.739 475.811 150.496C476.164 151.236 476.686 151.8 477.375 152.187C478.065 152.574 478.881 152.767 479.823 152.767C480.58 152.767 481.287 152.65 481.943 152.414C482.616 152.179 483.272 151.783 483.911 151.228L484.517 152.389C483.978 152.894 483.288 153.297 482.447 153.6C481.606 153.903 480.748 154.054 479.873 154.054Z" fill="#F2E6D4"/>
<path opacity="0.6" d="M465.422 154.054C464.278 154.054 463.286 153.794 462.445 153.272C461.603 152.751 460.947 152.019 460.476 151.077C460.022 150.135 459.795 149.016 459.795 147.72C459.795 146.442 460.022 145.332 460.476 144.39C460.947 143.431 461.603 142.69 462.445 142.169C463.286 141.647 464.278 141.387 465.422 141.387C466.583 141.387 467.584 141.647 468.425 142.169C469.266 142.69 469.914 143.431 470.368 144.39C470.839 145.332 471.075 146.442 471.075 147.72C471.075 149.016 470.839 150.135 470.368 151.077C469.914 152.019 469.266 152.751 468.425 153.272C467.584 153.794 466.583 154.054 465.422 154.054ZM465.422 152.767C466.684 152.767 467.676 152.33 468.4 151.455C469.14 150.58 469.51 149.335 469.51 147.72C469.51 146.122 469.14 144.886 468.4 144.011C467.676 143.136 466.684 142.699 465.422 142.699C464.194 142.699 463.21 143.136 462.47 144.011C461.73 144.886 461.359 146.122 461.359 147.72C461.359 149.335 461.73 150.58 462.47 151.455C463.21 152.33 464.194 152.767 465.422 152.767Z" fill="#F2E6D4"/>
<path opacity="0.6" d="M451.45 154.054C450.289 154.054 449.28 153.794 448.422 153.272C447.581 152.751 446.925 151.977 446.454 150.951C446 149.924 445.772 148.663 445.772 147.165V145.248C445.772 144.289 445.848 143.422 446 142.649C446.151 141.858 446.37 141.168 446.656 140.579C446.958 139.974 447.329 139.444 447.766 138.99C448.22 138.535 448.742 138.148 449.33 137.829C449.936 137.509 450.617 137.24 451.374 137.021L455.765 135.734L456.32 137.047L451.475 138.409C450.079 138.813 449.028 139.52 448.321 140.529C447.631 141.538 447.287 142.758 447.287 144.188V145.046H446.984C447.202 144.289 447.53 143.649 447.968 143.128C448.422 142.59 448.969 142.186 449.608 141.917C450.264 141.631 450.971 141.488 451.728 141.488C452.535 141.488 453.267 141.639 453.923 141.942C454.579 142.228 455.143 142.649 455.614 143.204C456.085 143.742 456.447 144.398 456.699 145.172C456.951 145.929 457.077 146.787 457.077 147.746C457.077 149.024 456.842 150.135 456.371 151.077C455.917 152.019 455.269 152.751 454.428 153.272C453.603 153.794 452.611 154.054 451.45 154.054ZM451.4 152.767C452.678 152.767 453.679 152.338 454.403 151.481C455.143 150.623 455.513 149.386 455.513 147.771C455.513 146.19 455.143 144.97 454.403 144.112C453.679 143.237 452.687 142.8 451.425 142.8C450.163 142.8 449.162 143.229 448.422 144.087C447.699 144.945 447.337 146.097 447.337 147.544C447.337 149.26 447.699 150.564 448.422 151.455C449.145 152.33 450.138 152.767 451.4 152.767Z" fill="#F2E6D4"/>
<path opacity="0.6" d="M437.444 154.054C436.333 154.054 435.366 153.819 434.542 153.348C433.734 152.86 433.095 152.17 432.624 151.279C432.153 150.387 431.884 149.344 431.816 148.149H429.217V153.852H427.703V141.614H429.217V146.888H431.842C432.01 145.189 432.582 143.851 433.557 142.876C434.55 141.883 435.845 141.387 437.444 141.387C438.587 141.387 439.58 141.647 440.421 142.169C441.279 142.69 441.935 143.431 442.389 144.39C442.86 145.332 443.096 146.442 443.096 147.72C443.096 149.016 442.86 150.135 442.389 151.077C441.935 152.019 441.279 152.751 440.421 153.272C439.58 153.794 438.587 154.054 437.444 154.054ZM437.444 152.767C438.705 152.767 439.698 152.33 440.421 151.455C441.161 150.58 441.531 149.335 441.531 147.72C441.531 146.122 441.161 144.886 440.421 144.011C439.698 143.136 438.705 142.699 437.444 142.699C436.215 142.699 435.223 143.136 434.466 144.011C433.726 144.886 433.356 146.122 433.356 147.72C433.356 149.335 433.726 150.58 434.466 151.455C435.223 152.33 436.215 152.767 437.444 152.767Z" fill="#F2E6D4"/>
<path opacity="0.6" d="M412.601 154.105L411.945 152.893C412.534 152.624 413.022 152.279 413.409 151.859C413.813 151.438 414.124 150.908 414.343 150.269C414.578 149.63 414.746 148.839 414.847 147.897C414.948 146.955 414.999 145.803 414.999 144.44V141.614H423.452V153.852H421.913V142.875H416.462V144.49C416.462 145.971 416.395 147.258 416.26 148.351C416.126 149.428 415.907 150.336 415.604 151.077C415.301 151.817 414.906 152.431 414.418 152.919C413.93 153.407 413.325 153.802 412.601 154.105Z" fill="#F2E6D4"/>
<path opacity="0.6" d="M393.573 153.852V141.614H399.25C400.176 141.614 400.941 141.74 401.547 141.992C402.152 142.228 402.607 142.581 402.909 143.052C403.212 143.523 403.364 144.12 403.364 144.844C403.364 145.634 403.086 146.299 402.531 146.837C401.993 147.359 401.278 147.67 400.386 147.771V147.443C401.059 147.46 401.648 147.603 402.152 147.872C402.674 148.124 403.069 148.477 403.338 148.932C403.624 149.386 403.767 149.907 403.767 150.496C403.767 151.522 403.389 152.338 402.632 152.944C401.875 153.55 400.815 153.852 399.452 153.852H393.573ZM395.062 152.717H399.452C400.361 152.717 401.05 152.523 401.522 152.136C402.009 151.733 402.253 151.169 402.253 150.446C402.253 149.706 402.009 149.15 401.522 148.78C401.05 148.393 400.361 148.2 399.452 148.2H395.062V152.717ZM395.062 147.064H399.25C400.075 147.064 400.714 146.871 401.168 146.484C401.639 146.097 401.875 145.567 401.875 144.894C401.875 144.204 401.639 143.675 401.168 143.304C400.714 142.934 400.075 142.749 399.25 142.749H395.062V147.064Z" fill="#F2E6D4"/>
<path opacity="0.6" d="M677.566 119.852V108.901H672.999V107.614H683.673V108.901H679.106V119.852H677.566Z" fill="#F2E6D4"/>
<path opacity="0.6" d="M660.306 124.395V107.614H661.845V110.667H661.567C661.853 109.658 662.4 108.859 663.208 108.27C664.015 107.681 664.991 107.387 666.135 107.387C667.228 107.387 668.179 107.647 668.986 108.169C669.811 108.69 670.441 109.422 670.879 110.364C671.333 111.306 671.56 112.425 671.56 113.72C671.56 115.016 671.333 116.143 670.879 117.102C670.441 118.044 669.819 118.776 669.011 119.297C668.204 119.802 667.245 120.054 666.135 120.054C664.991 120.054 664.015 119.76 663.208 119.171C662.4 118.582 661.853 117.8 661.567 116.824H661.845V124.395H660.306ZM665.908 118.767C667.153 118.767 668.145 118.33 668.885 117.455C669.625 116.58 669.996 115.335 669.996 113.72C669.996 112.122 669.625 110.886 668.885 110.011C668.145 109.136 667.153 108.699 665.908 108.699C664.663 108.699 663.67 109.136 662.93 110.011C662.19 110.886 661.82 112.122 661.82 113.72C661.82 115.335 662.19 116.58 662.93 117.455C663.67 118.33 664.663 118.767 665.908 118.767Z" fill="#F2E6D4"/>
<path opacity="0.6" d="M651.179 120.054C650.035 120.054 649.042 119.794 648.201 119.272C647.36 118.751 646.704 118.019 646.233 117.077C645.779 116.135 645.552 115.016 645.552 113.72C645.552 112.442 645.779 111.332 646.233 110.39C646.704 109.431 647.36 108.69 648.201 108.169C649.042 107.647 650.035 107.387 651.179 107.387C652.34 107.387 653.341 107.647 654.182 108.169C655.023 108.69 655.671 109.431 656.125 110.39C656.596 111.332 656.831 112.442 656.831 113.72C656.831 115.016 656.596 116.135 656.125 117.077C655.671 118.019 655.023 118.751 654.182 119.272C653.341 119.794 652.34 120.054 651.179 120.054ZM651.179 118.767C652.441 118.767 653.433 118.33 654.157 117.455C654.897 116.58 655.267 115.335 655.267 113.72C655.267 112.122 654.897 110.886 654.157 110.011C653.433 109.136 652.441 108.699 651.179 108.699C649.951 108.699 648.967 109.136 648.227 110.011C647.486 110.886 647.116 112.122 647.116 113.72C647.116 115.335 647.486 116.58 648.227 117.455C648.967 118.33 649.951 118.767 651.179 118.767Z" fill="#F2E6D4"/>
<path opacity="0.6" d="M633.632 124.395V117.001H633.859C633.623 117.96 633.203 118.709 632.597 119.247C632.008 119.785 631.251 120.054 630.326 120.054C629.451 120.054 628.686 119.802 628.03 119.297C627.39 118.776 626.886 118.044 626.516 117.102C626.145 116.143 625.96 115.016 625.96 113.721C625.96 112.425 626.137 111.307 626.49 110.365C626.86 109.422 627.374 108.691 628.03 108.169C628.686 107.648 629.451 107.387 630.326 107.387C631.251 107.387 632.008 107.656 632.597 108.194C633.203 108.733 633.623 109.498 633.859 110.491H633.632V102.062H635.171V110.491H634.944C635.179 109.498 635.591 108.733 636.18 108.194C636.786 107.656 637.543 107.387 638.451 107.387C639.343 107.387 640.108 107.648 640.748 108.169C641.404 108.691 641.908 109.422 642.262 110.365C642.632 111.307 642.817 112.425 642.817 113.721C642.817 115.016 642.64 116.143 642.287 117.102C641.934 118.044 641.429 118.776 640.773 119.297C640.134 119.802 639.36 120.054 638.451 120.054C637.543 120.054 636.786 119.785 636.18 119.247C635.591 118.709 635.179 117.96 634.944 117.001H635.171V124.395H633.632ZM630.578 118.793C631.234 118.793 631.79 118.599 632.244 118.212C632.698 117.825 633.043 117.253 633.278 116.496C633.531 115.739 633.657 114.814 633.657 113.721C633.657 112.644 633.531 111.736 633.278 110.995C633.043 110.238 632.69 109.666 632.219 109.279C631.764 108.876 631.218 108.674 630.578 108.674C629.636 108.674 628.888 109.111 628.332 109.986C627.777 110.861 627.5 112.106 627.5 113.721C627.5 115.386 627.777 116.648 628.332 117.506C628.888 118.364 629.636 118.793 630.578 118.793ZM638.199 118.793C639.158 118.793 639.907 118.364 640.445 117.506C641 116.648 641.278 115.386 641.278 113.721C641.278 112.106 641 110.861 640.445 109.986C639.89 109.111 639.141 108.674 638.199 108.674C637.56 108.674 637.013 108.876 636.559 109.279C636.105 109.666 635.751 110.238 635.499 110.995C635.263 111.736 635.146 112.644 635.146 113.721C635.146 114.814 635.263 115.739 635.499 116.496C635.751 117.253 636.105 117.825 636.559 118.212C637.013 118.599 637.56 118.793 638.199 118.793Z" fill="#F2E6D4"/>
<path opacity="0.6" d="M610.404 119.852V107.614H611.691L616.46 116.244L621.23 107.614H622.491V119.852H621.129V109.38H621.659L616.864 117.884H616.032L611.237 109.38H611.792V119.852H610.404Z" fill="#F2E6D4"/>
<path opacity="0.6" d="M601.278 120.054C600.134 120.054 599.141 119.794 598.3 119.272C597.459 118.751 596.803 118.019 596.332 117.077C595.878 116.135 595.65 115.016 595.65 113.72C595.65 112.442 595.878 111.332 596.332 110.39C596.803 109.431 597.459 108.69 598.3 108.169C599.141 107.647 600.134 107.387 601.278 107.387C602.438 107.387 603.439 107.647 604.28 108.169C605.122 108.69 605.769 109.431 606.224 110.39C606.695 111.332 606.93 112.442 606.93 113.72C606.93 115.016 606.695 116.135 606.224 117.077C605.769 118.019 605.122 118.751 604.28 119.272C603.439 119.794 602.438 120.054 601.278 120.054ZM601.278 118.767C602.539 118.767 603.532 118.33 604.255 117.455C604.995 116.58 605.366 115.335 605.366 113.72C605.366 112.122 604.995 110.886 604.255 110.011C603.532 109.136 602.539 108.699 601.278 108.699C600.05 108.699 599.065 109.136 598.325 110.011C597.585 110.886 597.215 112.122 597.215 113.72C597.215 115.335 597.585 116.58 598.325 117.455C599.065 118.33 600.05 118.767 601.278 118.767Z" fill="#F2E6D4"/>
<path opacity="0.6" d="M583.519 119.852V107.614H585.058V112.888H587.582L591.796 107.614H593.537L588.894 113.468L588.364 112.989C588.852 113.039 589.264 113.157 589.6 113.342C589.937 113.51 590.265 113.788 590.585 114.175C590.921 114.562 591.3 115.091 591.72 115.764L594.193 119.852H592.528L590.257 116.092C589.937 115.588 589.634 115.192 589.348 114.906C589.079 114.62 588.768 114.427 588.414 114.326C588.078 114.208 587.649 114.149 587.128 114.149H585.058V119.852H583.519Z" fill="#F2E6D4"/>
<path opacity="0.6" d="M562.671 119.852V107.614H564.085V118.49H563.479L571.579 107.614H572.942V119.852H571.529V108.976H572.134L564.009 119.852H562.671ZM567.794 106.024C567.205 106.024 566.633 105.915 566.078 105.696C565.54 105.477 565.052 105.132 564.614 104.661C564.194 104.174 563.857 103.559 563.605 102.819L564.614 102.416C564.934 103.273 565.355 103.913 565.876 104.333C566.398 104.737 567.037 104.939 567.794 104.939C568.568 104.939 569.207 104.754 569.712 104.384C570.233 104.014 570.713 103.366 571.15 102.441L572.109 102.819C571.789 103.627 571.402 104.266 570.948 104.737C570.494 105.208 569.998 105.545 569.459 105.746C568.938 105.931 568.383 106.024 567.794 106.024Z" fill="#F2E6D4"/>
<path opacity="0.6" d="M544.781 119.852V107.614H546.32V112.131H550.231C551.762 112.131 552.923 112.467 553.714 113.14C554.521 113.813 554.925 114.755 554.925 115.966C554.925 116.774 554.74 117.472 554.37 118.061C554.016 118.65 553.495 119.095 552.805 119.398C552.115 119.701 551.258 119.852 550.231 119.852H544.781ZM546.32 118.666H550.181C551.19 118.666 551.972 118.448 552.528 118.01C553.1 117.573 553.386 116.9 553.386 115.992C553.386 115.066 553.1 114.385 552.528 113.948C551.972 113.51 551.19 113.291 550.181 113.291H546.32V118.666ZM556.893 119.852V107.614H558.432V119.852H556.893Z" fill="#F2E6D4"/>
<path opacity="0.6" d="M530.217 119.852V107.614H531.756V112.888H538.998V107.614H540.538V119.852H538.998V114.175H531.756V119.852H530.217Z" fill="#F2E6D4"/>
<path opacity="0.6" d="M516.836 119.852V107.614H518.375V112.131H522.287C523.817 112.131 524.978 112.467 525.769 113.14C526.576 113.813 526.98 114.755 526.98 115.966C526.98 116.774 526.795 117.472 526.425 118.061C526.072 118.65 525.55 119.095 524.86 119.398C524.171 119.701 523.313 119.852 522.287 119.852H516.836ZM518.375 118.666H522.236C523.245 118.666 524.028 118.448 524.583 118.01C525.155 117.573 525.441 116.9 525.441 115.992C525.441 115.066 525.155 114.385 524.583 113.948C524.028 113.51 523.245 113.291 522.236 113.291H518.375V118.666Z" fill="#F2E6D4"/>
<path opacity="0.6" d="M501.734 120.105L501.078 118.893C501.667 118.624 502.155 118.279 502.542 117.859C502.945 117.438 503.257 116.908 503.475 116.269C503.711 115.63 503.879 114.839 503.98 113.897C504.081 112.955 504.131 111.803 504.131 110.44V107.614H512.585V119.852H511.046V108.875H505.595V110.49C505.595 111.971 505.528 113.258 505.393 114.351C505.259 115.428 505.04 116.336 504.737 117.077C504.434 117.817 504.039 118.431 503.551 118.919C503.063 119.407 502.458 119.802 501.734 120.105Z" fill="#F2E6D4"/>
<path opacity="0.6" d="M493.021 120.054C492.197 120.054 491.457 119.894 490.8 119.575C490.161 119.255 489.648 118.818 489.261 118.263C488.891 117.707 488.706 117.085 488.706 116.395C488.706 115.487 488.933 114.772 489.387 114.25C489.842 113.729 490.607 113.367 491.684 113.165C492.76 112.947 494.241 112.837 496.125 112.837H497.21V113.973H496.15C495.023 113.973 494.073 114.006 493.299 114.074C492.542 114.141 491.944 114.267 491.507 114.452C491.07 114.621 490.758 114.856 490.573 115.159C490.405 115.462 490.321 115.832 490.321 116.269C490.321 117.026 490.582 117.64 491.103 118.111C491.625 118.582 492.331 118.818 493.223 118.818C493.946 118.818 494.577 118.65 495.116 118.313C495.671 117.96 496.108 117.48 496.428 116.875C496.747 116.269 496.907 115.579 496.907 114.806V111.929C496.907 110.802 496.68 109.986 496.226 109.481C495.772 108.96 495.048 108.699 494.056 108.699C493.315 108.699 492.601 108.808 491.911 109.027C491.238 109.246 490.54 109.591 489.816 110.062L489.211 108.876C489.648 108.573 490.128 108.312 490.649 108.093C491.187 107.875 491.743 107.706 492.315 107.589C492.903 107.454 493.475 107.387 494.03 107.387C495.023 107.387 495.839 107.555 496.478 107.891C497.134 108.228 497.614 108.733 497.917 109.405C498.236 110.078 498.396 110.945 498.396 112.005V119.852H496.932V116.9H497.185C497.033 117.556 496.764 118.12 496.377 118.591C495.99 119.062 495.511 119.423 494.939 119.676C494.367 119.928 493.728 120.054 493.021 120.054Z" fill="#F2E6D4"/>
<path opacity="0.6" d="M482.453 120.054C481.259 120.054 480.232 119.794 479.375 119.272C478.517 118.734 477.852 117.985 477.381 117.026C476.927 116.05 476.7 114.923 476.7 113.645C476.7 112.349 476.927 111.239 477.381 110.314C477.852 109.389 478.517 108.674 479.375 108.169C480.232 107.647 481.259 107.387 482.453 107.387C483.21 107.387 483.942 107.53 484.648 107.816C485.372 108.102 485.977 108.497 486.465 109.002L485.86 110.162C485.338 109.658 484.783 109.296 484.194 109.077C483.605 108.842 483.042 108.724 482.504 108.724C481.141 108.724 480.089 109.153 479.349 110.011C478.626 110.852 478.264 112.072 478.264 113.67C478.264 115.251 478.626 116.496 479.349 117.405C480.089 118.296 481.141 118.742 482.504 118.742C483.042 118.742 483.605 118.633 484.194 118.414C484.783 118.179 485.338 117.808 485.86 117.304L486.465 118.465C485.977 118.952 485.363 119.339 484.623 119.625C483.9 119.911 483.176 120.054 482.453 120.054Z" fill="#F2E6D4"/>
<path opacity="0.6" d="M462.745 124.395V107.614H464.284V110.667H464.007C464.293 109.658 464.84 108.859 465.647 108.27C466.455 107.681 467.43 107.387 468.574 107.387C469.668 107.387 470.618 107.647 471.426 108.169C472.25 108.69 472.881 109.422 473.318 110.364C473.772 111.306 474 112.425 474 113.72C474 115.016 473.772 116.143 473.318 117.102C472.881 118.044 472.258 118.776 471.451 119.297C470.643 119.802 469.685 120.054 468.574 120.054C467.43 120.054 466.455 119.76 465.647 119.171C464.84 118.582 464.293 117.8 464.007 116.824H464.284V124.395H462.745ZM468.347 118.767C469.592 118.767 470.585 118.33 471.325 117.455C472.065 116.58 472.435 115.335 472.435 113.72C472.435 112.122 472.065 110.886 471.325 110.011C470.585 109.136 469.592 108.699 468.347 108.699C467.102 108.699 466.11 109.136 465.369 110.011C464.629 110.886 464.259 112.122 464.259 113.72C464.259 115.335 464.629 116.58 465.369 117.455C466.11 118.33 467.102 118.767 468.347 118.767Z" fill="#F2E6D4"/>
<path opacity="0.6" d="M454.565 120.054C453.304 120.054 452.219 119.802 451.31 119.297C450.402 118.793 449.704 118.069 449.216 117.127C448.728 116.185 448.484 115.066 448.484 113.771C448.484 112.492 448.728 111.382 449.216 110.44C449.704 109.481 450.376 108.733 451.234 108.194C452.109 107.656 453.11 107.387 454.237 107.387C455.331 107.387 456.256 107.631 457.013 108.119C457.787 108.59 458.376 109.271 458.779 110.162C459.2 111.037 459.41 112.097 459.41 113.342V114.049H449.594V112.913H458.451L458.048 113.241C458.048 111.794 457.728 110.667 457.089 109.86C456.449 109.035 455.507 108.623 454.263 108.623C453.337 108.623 452.555 108.842 451.916 109.279C451.276 109.7 450.797 110.289 450.477 111.046C450.158 111.786 449.998 112.644 449.998 113.62V113.746C449.998 114.822 450.166 115.739 450.503 116.496C450.856 117.236 451.377 117.8 452.067 118.187C452.757 118.574 453.573 118.767 454.515 118.767C455.272 118.767 455.978 118.65 456.635 118.414C457.307 118.179 457.964 117.783 458.603 117.228L459.208 118.389C458.67 118.894 457.98 119.297 457.139 119.6C456.298 119.903 455.44 120.054 454.565 120.054Z" fill="#F2E6D4"/>
<path opacity="0.6" d="M435.688 119.852V107.614H441.365C442.29 107.614 443.056 107.74 443.661 107.992C444.267 108.228 444.721 108.581 445.024 109.052C445.327 109.523 445.478 110.12 445.478 110.844C445.478 111.634 445.201 112.299 444.646 112.837C444.107 113.359 443.392 113.67 442.501 113.771V113.443C443.174 113.46 443.762 113.603 444.267 113.872C444.789 114.124 445.184 114.477 445.453 114.932C445.739 115.386 445.882 115.907 445.882 116.496C445.882 117.522 445.504 118.338 444.747 118.944C443.99 119.55 442.93 119.852 441.567 119.852H435.688ZM437.176 118.717H441.567C442.475 118.717 443.165 118.523 443.636 118.136C444.124 117.733 444.368 117.169 444.368 116.446C444.368 115.706 444.124 115.15 443.636 114.78C443.165 114.393 442.475 114.2 441.567 114.2H437.176V118.717ZM437.176 113.064H441.365C442.19 113.064 442.829 112.871 443.283 112.484C443.754 112.097 443.99 111.567 443.99 110.894C443.99 110.204 443.754 109.675 443.283 109.304C442.829 108.934 442.19 108.749 441.365 108.749H437.176V113.064Z" fill="#F2E6D4"/>
<path opacity="0.6" d="M421.173 119.852V107.614H422.586V118.49H421.98L430.081 107.614H431.443V119.852H430.03V108.976H430.636L422.51 119.852H421.173Z" fill="#F2E6D4"/>
<path opacity="0.6" d="M406.609 119.852V107.614H408.148V112.888H415.39V107.614H416.93V119.852H415.39V114.175H408.148V119.852H406.609Z" fill="#F2E6D4"/>
<path opacity="0.6" d="M395.138 124.394L397.308 119.449V120.155L391.958 107.614H393.674L398.317 118.919H397.686L402.354 107.614H404.02L396.803 124.394H395.138Z" fill="#F2E6D4"/>
</g>
<defs>
<linearGradient id="paint0_linear_211_1605" x1="770.243" y1="0" x2="770.243" y2="785.972" gradientUnits="userSpaceOnUse">
<stop stop-color="#F2E6D4" stop-opacity="0"/>
<stop offset="0.495192" stop-color="#F2E6D4"/>
<stop offset="1" stop-color="#F2E6D4" stop-opacity="0"/>
</linearGradient>
<linearGradient id="paint1_linear_211_1605" x1="924.155" y1="385.816" x2="228.785" y2="752.168" gradientUnits="userSpaceOnUse">
<stop stop-color="#F2E6D4" stop-opacity="0"/>
<stop offset="0.495192" stop-color="#F2E6D4"/>
<stop offset="1" stop-color="#F2E6D4" stop-opacity="0"/>
</linearGradient>
<linearGradient id="paint2_linear_211_1605" x1="924.13" y1="243.719" x2="209.245" y2="570.357" gradientUnits="userSpaceOnUse">
<stop stop-color="#F2E6D4" stop-opacity="0"/>
<stop offset="0.495192" stop-color="#F2E6D4"/>
<stop offset="1" stop-color="#F2E6D4" stop-opacity="0"/>
</linearGradient>
<linearGradient id="paint3_linear_211_1605" x1="952.071" y1="346.231" x2="186.704" y2="167.44" gradientUnits="userSpaceOnUse">
<stop stop-color="#F2E6D4" stop-opacity="0"/>
<stop offset="0.495192" stop-color="#F2E6D4"/>
<stop offset="1" stop-color="#F2E6D4" stop-opacity="0"/>
</linearGradient>
<clipPath id="clip0_211_1605">
<rect width="952" height="886" fill="white"/>
</clipPath>
</defs>
</svg>
