<svg width="101" height="161" viewBox="0 0 101 161" fill="none" xmlns="http://www.w3.org/2000/svg">
<path d="M74.8467 155.878L74.8467 143.188L76.9887 143.188L76.9887 152.656L76.5747 152.656L83.8107 143.188L85.5387 143.188L85.5387 155.878L83.3967 155.878L83.3967 146.392L83.7927 146.392L76.5567 155.878L74.8467 155.878ZM80.1747 142.198C79.5387 142.198 78.9747 142.096 78.4827 141.892C78.0027 141.676 77.6007 141.382 77.2767 141.01C76.9647 140.626 76.7427 140.182 76.6107 139.678L77.7627 139.282C78.0027 139.87 78.3147 140.296 78.6987 140.56C79.0827 140.812 79.5807 140.938 80.1927 140.938C80.8167 140.938 81.3147 140.806 81.6867 140.542C82.0707 140.278 82.3947 139.864 82.6587 139.3L83.7747 139.678C83.4987 140.506 83.0427 141.136 82.4067 141.568C81.7827 141.988 81.0387 142.198 80.1747 142.198Z" fill="#003D57"/>
<path d="M56.4619 155.878L56.4619 143.188L58.7659 143.187L58.7659 148.48L61.6639 148.48C62.5639 148.48 63.3379 148.624 63.9859 148.912C64.6339 149.188 65.1259 149.602 65.4619 150.154C65.8099 150.694 65.9839 151.366 65.9839 152.17C65.9839 152.974 65.8099 153.652 65.4619 154.204C65.1259 154.756 64.6339 155.175 63.9859 155.463C63.3379 155.739 62.5639 155.878 61.6639 155.878L56.4619 155.878ZM58.7659 154.042L61.3759 154.042C62.1919 154.042 62.7919 153.892 63.1759 153.592C63.5599 153.28 63.7519 152.806 63.7519 152.17C63.7519 151.534 63.5599 151.066 63.1759 150.766C62.7919 150.466 62.1919 150.316 61.3759 150.316L58.7659 150.316L58.7659 154.042ZM67.6039 155.878L67.6039 143.187L69.9079 143.187L69.9079 155.878L67.6039 155.878Z" fill="#003D57"/>
<path d="M42.5596 155.878L42.5596 143.188L48.0676 143.187C49.0036 143.187 49.7956 143.344 50.4436 143.656C51.0916 143.967 51.5836 144.417 51.9196 145.005C52.2556 145.593 52.4236 146.308 52.4236 147.148C52.4236 147.976 52.2556 148.689 51.9196 149.289C51.5836 149.877 51.0916 150.333 50.4436 150.657C49.7956 150.969 49.0036 151.126 48.0676 151.126L44.8636 151.126L44.8636 155.878L42.5596 155.878ZM44.8636 149.308L47.7076 149.308C48.5236 149.308 49.1416 149.127 49.5616 148.767C49.9816 148.395 50.1916 147.856 50.1916 147.148C50.1916 146.44 49.9816 145.905 49.5616 145.545C49.1416 145.185 48.5236 145.005 47.7076 145.005L44.8636 145.005L44.8636 149.308Z" fill="#003D57"/>
<path d="M29.6597 155.878L29.6597 143.188L38.1017 143.187L38.1017 145.024L31.8737 145.024L31.8737 148.516L37.7057 148.516L37.7057 150.351L31.8737 150.351L31.8737 154.042L38.1017 154.042L38.1017 155.878L29.6597 155.878Z" fill="#003D57"/>
<path d="M21.1867 156.058C19.8667 156.058 18.7327 155.794 17.7847 155.266C16.8487 154.726 16.1287 153.97 15.6247 152.998C15.1207 152.014 14.8687 150.856 14.8687 149.524C14.8687 148.192 15.1207 147.04 15.6247 146.068C16.1287 145.096 16.8487 144.346 17.7847 143.818C18.7327 143.278 19.8667 143.008 21.1867 143.008C22.0387 143.008 22.8427 143.14 23.5987 143.404C24.3667 143.668 24.9967 144.046 25.4887 144.538L24.7327 146.374C24.1927 145.918 23.6407 145.588 23.0767 145.384C22.5127 145.168 21.9067 145.06 21.2587 145.06C19.9747 145.06 18.9967 145.45 18.3247 146.23C17.6527 146.998 17.3167 148.096 17.3167 149.524C17.3167 150.952 17.6527 152.056 18.3247 152.836C18.9967 153.616 19.9747 154.006 21.2587 154.006C21.9067 154.006 22.5127 153.904 23.0767 153.7C23.6407 153.484 24.1927 153.148 24.7327 152.692L25.4887 154.528C24.9967 155.008 24.3667 155.386 23.5987 155.662C22.8427 155.926 22.0387 156.058 21.1867 156.058Z" fill="#003D57"/>
<path d="M85.2075 130.878L85.2075 118.188L87.3495 118.188L87.3495 127.656L86.9355 127.656L94.1715 118.188L95.8995 118.188L95.8995 130.878L93.7575 130.878L93.7575 121.392L94.1535 121.392L86.9175 130.878L85.2075 130.878ZM90.5355 117.198C89.8995 117.198 89.3355 117.096 88.8435 116.892C88.3635 116.676 87.9615 116.382 87.6375 116.01C87.3255 115.626 87.1035 115.182 86.9715 114.678L88.1235 114.282C88.3635 114.87 88.6755 115.296 89.0595 115.56C89.4435 115.812 89.9415 115.938 90.5535 115.938C91.1775 115.938 91.6755 115.806 92.0475 115.542C92.4315 115.278 92.7555 114.864 93.0195 114.3L94.1355 114.678C93.8595 115.506 93.4035 116.136 92.7675 116.568C92.1435 116.988 91.3995 117.198 90.5355 117.198Z" fill="#003D57"/>
<path d="M66.8232 130.878L66.8232 118.188L69.1272 118.187L69.1272 123.479L72.0252 123.479C72.9252 123.479 73.6992 123.624 74.3472 123.911C74.9952 124.187 75.4872 124.602 75.8232 125.154C76.1712 125.694 76.3452 126.366 76.3452 127.17C76.3452 127.974 76.1712 128.652 75.8232 129.204C75.4872 129.756 74.9952 130.176 74.3472 130.464C73.6992 130.74 72.9252 130.878 72.0252 130.878L66.8232 130.878ZM69.1272 129.042L71.7372 129.042C72.5532 129.042 73.1532 128.892 73.5372 128.592C73.9212 128.28 74.1132 127.806 74.1132 127.17C74.1132 126.534 73.9212 126.066 73.5372 125.766C73.1532 125.465 72.5532 125.316 71.7372 125.316L69.1272 125.316L69.1272 129.042ZM77.9652 130.878L77.9652 118.187L80.2692 118.187L80.2692 130.878L77.9652 130.878Z" fill="#003D57"/>
<path d="M50.7412 130.878L50.7412 118.188L53.0452 118.187L53.0452 123.479L59.5792 123.479L59.5792 118.187L61.8832 118.187L61.8832 130.878L59.5792 130.878L59.5792 125.406L53.0452 125.406L53.0452 130.878L50.7412 130.878Z" fill="#003D57"/>
<path d="M34.6592 130.878L34.6592 118.188L36.9632 118.187L36.9632 123.479L43.4972 123.479L43.4972 118.187L45.8012 118.187L45.8012 130.878L43.4972 130.878L43.4972 125.406L36.9632 125.406L36.9632 130.878L34.6592 130.878Z" fill="#003D57"/>
<path d="M22.4885 130.878L24.6485 126.648L24.6485 127.368L18.9785 118.188L21.4445 118.187L25.7645 125.298L25.3505 125.298L28.9685 118.187L31.3445 118.187L24.8825 130.878L22.4885 130.878Z" fill="#003D57"/>
<path d="M4.9216 131.184L3.7876 129.474C4.2676 129.198 4.6876 128.88 5.0476 128.52C5.4196 128.148 5.7256 127.686 5.9656 127.134C6.2176 126.569 6.4036 125.874 6.5236 125.046C6.6556 124.218 6.7216 123.216 6.7216 122.04L6.7216 118.187L15.6856 118.187L15.6856 130.878L13.3816 130.878L13.3816 120.113L8.8456 120.113L8.8456 122.634C8.8456 123.858 8.7556 124.932 8.5756 125.856C8.4076 126.78 8.1556 127.583 7.8196 128.267C7.4836 128.951 7.0696 129.534 6.5776 130.014C6.0976 130.482 5.5456 130.872 4.9216 131.184Z" fill="#003D57"/>
<circle cx="50.4694" cy="49.8317" r="48.8542" fill="#AFAEB3" stroke="#C1C1C1" stroke-width="1.5"/>
</svg>
